<?xml version="1.0" encoding="utf-8" standalone="yes"?>
<!DOCTYPE svg PUBLIC "-//W3C//DTD SVG 1.1//EN" "http://www.w3.org/Graphics/SVG/1.1/DTD/svg11.dtd">
<svg style="fill:none;stroke:none;fill-rule:evenodd;clip-rule:evenodd;stroke-linecap:round;stroke-linejoin:round;stroke-miterlimit:1.5;" version="1.1" xmlns="http://www.w3.org/2000/svg" xmlns:xlink="http://www.w3.org/1999/xlink" width="826" height="744" viewBox="0 0 826 744"><style class="text-font-style fontImports" data-font-family="Roboto">@import url(https://fonts.googleapis.com/css2?family=Roboto:wght@400;700&amp;amp;display=block);</style><rect id="" x="0" y="0" width="825.281" height="744" style="fill: #ffffff;"></rect><g id="items" style="isolation: isolate"><g id="blend" style="mix-blend-mode: normal"><g id="g-root-cp_1_g-1_1cy0fqjhkq3gh-fill" data-item-order="-590962" transform="translate(363.15625, 116)"><g id="cp_1_g-1_1cy0fqjhkq3gh-fill-merged" stroke="none" fill="#4877c3" fill-opacity="1"><g><path d="M52 94C75.196 94 94 75.196 94 52C94 28.804 75.196 10 52 10C28.804 10 10 28.804 10 52C10 75.196 28.804 94 52 94 M52 78.25C66.497 78.25 78.25 66.497 78.25 52C78.25 37.502 66.497 25.75 52 25.75C37.502 25.75 25.75 37.502 25.75 52C25.75 66.497 37.502 78.25 52 78.25"></path></g></g></g><g id="g-root-cp_1_g-1_1cy0fqjhkq3gh-stroke" data-item-order="-590962" transform="translate(363.15625, 116)"><g id="cp_1_g-1_1cy0fqjhkq3gh-stroke" fill="none" stroke-linecap="round" stroke-linejoin="round" stroke-miterlimit="4" stroke="#ffffff" stroke-width="1" stroke-opacity="1"><g><path d="M 52 94C 75.196 94 94 75.196 94 52C 94 28.804 75.196 10 52 10C 28.804 10 10 28.804 10 52C 10 75.196 28.804 94 52 94ZM 52 78.25C 66.4975 78.25 78.25 66.4975 78.25 52C 78.25 37.5025 66.4975 25.75 52 25.75C 37.5025 25.75 25.75 37.5025 25.75 52C 25.75 66.4975 37.5025 78.25 52 78.25Z"></path></g></g></g><g id="g-root-sy_1_Subtract_142zwkrhkq13e-fill" data-item-order="-590955" transform="translate(447.15625, 158)"></g><g id="g-root-sy_1_Subtract_142zwkrhkq13e-stroke" data-item-order="-590955" transform="translate(447.15625, 158)"><g id="sy_1_Subtract_142zwkrhkq13e-stroke" fill="none" stroke-linecap="round" stroke-linejoin="round" stroke-miterlimit="4" stroke="#484848" stroke-width="1" stroke-opacity="1"><g><path d="M 49.375 10L 10 10"></path></g></g></g><g id="g-root-sy_1_Subtract-start_142zwkrhkq13f-fill" data-item-order="-590953" transform="translate(486.53125, 155.375)"></g><g id="g-root-sy_1_Subtract-start_142zwkrhkq13f-stroke" data-item-order="-590953" transform="translate(486.53125, 155.375)"><g id="sy_1_Subtract-start_142zwkrhkq13f-stroke" fill="none" stroke-linecap="round" stroke-linejoin="round" stroke-miterlimit="4" stroke="#484848" stroke-width="1" stroke-opacity="1"><g><path d="M 12.625 10C 14.0738 10 15.25 11.1762 15.25 12.625C 15.25 14.0738 14.0738 15.25 12.625 15.25C 11.1762 15.25 10 14.0738 10 12.625C 10 11.1762 11.1762 10 12.625 10Z"></path></g></g></g><g id="g-root-sy_1_Subtract_1_142zwkrhkq13g-fill" data-item-order="-590949" transform="translate(324.15625, 158)"></g><g id="g-root-sy_1_Subtract_1_142zwkrhkq13g-stroke" data-item-order="-590949" transform="translate(324.15625, 158)"><g id="sy_1_Subtract_1_142zwkrhkq13g-stroke" fill="none" stroke-linecap="round" stroke-linejoin="round" stroke-miterlimit="4" stroke="#484848" stroke-width="1" stroke-opacity="1"><g><path d="M 10 10L 49 10"></path></g></g></g><g id="g-root-sy_1_Subtract-start_1_zn6egbhkq1vp-fill" data-item-order="-590947" transform="translate(318.15625, 155)"></g><g id="g-root-sy_1_Subtract-start_1_zn6egbhkq1vp-stroke" data-item-order="-590947" transform="translate(318.15625, 155)"><g id="sy_1_Subtract-start_1_zn6egbhkq1vp-stroke" fill="none" stroke-linecap="round" stroke-linejoin="round" stroke-miterlimit="4" stroke="#484848" stroke-width="1" stroke-opacity="1"><g><path d="M 13 10C 11.3443 10 10 11.3443 10 13C 10 14.6557 11.3443 16 13 16C 14.6557 16 16 14.6557 16 13C 16 11.3443 14.6557 10 13 10Z"></path></g></g></g><g id="g-root-cp_1_lines_zn6egbhkq1vq-fill" data-item-order="-590934" transform="translate(397.15625, 199.25)"><g id="cp_1_lines_zn6egbhkq1vq-fill-merged" stroke="none" fill="#4877c3" fill-opacity="1"><g><path d="M10 41.5C12.591 40.983 15.266 40.713 18 40.713C20.734 40.713 23.409 40.983 26 41.5 V10C23.409 10.517 20.734 10.787 18 10.787C15.266 10.787 12.591 10.517 10 10 V41.5"></path></g></g></g><g id="g-root-cp_1_lines_zn6egbhkq1vq-stroke" data-item-order="-590934" transform="translate(397.15625, 199.25)"><g id="cp_1_lines_zn6egbhkq1vq-stroke" fill="none" stroke-linecap="round" stroke-linejoin="round" stroke-miterlimit="4" stroke="#ffffff" stroke-width="1" stroke-opacity="1"><g><path d="M 10 16L 10 10C 12.5913 10.5167 15.2656 10.7871 18 10.7871C 20.7344 10.7871 23.4087 10.5167 26 10.000001L 26 16M 26 35.5L 26 41.5C 23.4087 40.9833 20.7344 40.7129 18 40.7129C 15.2656 40.7129 12.5913 40.9833 10 41.5L 10 35.5M 26 35.5L 26 16M 10 16L 10 35.5"></path></g></g></g><g id="g-root-cp_2_g-2_zn6egbhkq1vr-fill" data-item-order="-590904" transform="translate(363.15625, 230)"><g id="cp_2_g-2_zn6egbhkq1vr-fill-merged" stroke="none" fill="#4f85dc" fill-opacity="1"><g><path d="M52 94C75.196 94 94 75.196 94 52C94 28.804 75.196 10 52 10C28.804 10 10 28.804 10 52C10 75.196 28.804 94 52 94 M52 78.25C66.497 78.25 78.25 66.497 78.25 52C78.25 37.502 66.497 25.75 52 25.75C37.502 25.75 25.75 37.502 25.75 52C25.75 66.497 37.502 78.25 52 78.25"></path></g></g></g><g id="g-root-cp_2_g-2_zn6egbhkq1vr-stroke" data-item-order="-590904" transform="translate(363.15625, 230)"><g id="cp_2_g-2_zn6egbhkq1vr-stroke" fill="none" stroke-linecap="round" stroke-linejoin="round" stroke-miterlimit="4" stroke="#ffffff" stroke-width="1" stroke-opacity="1"><g><path d="M 52 94C 75.196 94 94 75.196 94 52C 94 28.804 75.196 10 52 10C 28.804 10 10 28.804 10 52C 10 75.196 28.804 94 52 94ZM 52 78.25C 66.4975 78.25 78.25 66.4975 78.25 52C 78.25 37.5025 66.4975 25.75 52 25.75C 37.5025 25.75 25.75 37.5025 25.75 52C 25.75 66.4975 37.5025 78.25 52 78.25Z"></path></g></g></g><g id="g-root-sy_2_Subtract_v7cwbvhkq2o0-fill" data-item-order="-590897" transform="translate(447.15625, 272)"></g><g id="g-root-sy_2_Subtract_v7cwbvhkq2o0-stroke" data-item-order="-590897" transform="translate(447.15625, 272)"><g id="sy_2_Subtract_v7cwbvhkq2o0-stroke" fill="none" stroke-linecap="round" stroke-linejoin="round" stroke-miterlimit="4" stroke="#484848" stroke-width="1" stroke-opacity="1"><g><path d="M 49.375 10L 10 10"></path></g></g></g><g id="g-root-sy_2_Subtract-start_v7cwbvhkq2o1-fill" data-item-order="-590895" transform="translate(486.53125, 269.375)"></g><g id="g-root-sy_2_Subtract-start_v7cwbvhkq2o1-stroke" data-item-order="-590895" transform="translate(486.53125, 269.375)"><g id="sy_2_Subtract-start_v7cwbvhkq2o1-stroke" fill="none" stroke-linecap="round" stroke-linejoin="round" stroke-miterlimit="4" stroke="#484848" stroke-width="1" stroke-opacity="1"><g><path d="M 12.625 10C 14.0738 10 15.25 11.1762 15.25 12.625C 15.25 14.0738 14.0738 15.25 12.625 15.25C 11.1762 15.25 10 14.0738 10 12.625C 10 11.1762 11.1762 10 12.625 10Z"></path></g></g></g><g id="g-root-sy_2_Subtract_1_v7cwbvhkq2o2-fill" data-item-order="-590891" transform="translate(324.15625, 272)"></g><g id="g-root-sy_2_Subtract_1_v7cwbvhkq2o2-stroke" data-item-order="-590891" transform="translate(324.15625, 272)"><g id="sy_2_Subtract_1_v7cwbvhkq2o2-stroke" fill="none" stroke-linecap="round" stroke-linejoin="round" stroke-miterlimit="4" stroke="#484848" stroke-width="1" stroke-opacity="1"><g><path d="M 10 10L 49 10"></path></g></g></g><g id="g-root-sy_2_Subtract-start_1_v7cwbvhkq2o3-fill" data-item-order="-590889" transform="translate(318.15625, 269)"></g><g id="g-root-sy_2_Subtract-start_1_v7cwbvhkq2o3-stroke" data-item-order="-590889" transform="translate(318.15625, 269)"><g id="sy_2_Subtract-start_1_v7cwbvhkq2o3-stroke" fill="none" stroke-linecap="round" stroke-linejoin="round" stroke-miterlimit="4" stroke="#484848" stroke-width="1" stroke-opacity="1"><g><path d="M 13 10C 11.3443 10 10 11.3443 10 13C 10 14.6557 11.3443 16 13 16C 14.6557 16 16 14.6557 16 13C 16 11.3443 14.6557 10 13 10Z"></path></g></g></g><g id="g-root-cp_2_lines_1_mbpw2zhkq3gs-fill" data-item-order="-590882" transform="translate(397.15625, 313.25)"><g id="cp_2_lines_1_mbpw2zhkq3gs-fill-merged" stroke="none" fill="#4f85dc" fill-opacity="1"><g><path d="M10 41.5C12.591 40.983 15.266 40.713 18 40.713C20.734 40.713 23.409 40.983 26 41.5 V10C23.409 10.517 20.734 10.787 18 10.787C15.266 10.787 12.591 10.517 10 10 V41.5"></path></g></g></g><g id="g-root-cp_2_lines_1_mbpw2zhkq3gs-stroke" data-item-order="-590882" transform="translate(397.15625, 313.25)"><g id="cp_2_lines_1_mbpw2zhkq3gs-stroke" fill="none" stroke-linecap="round" stroke-linejoin="round" stroke-miterlimit="4" stroke="#ffffff" stroke-width="1" stroke-opacity="1"><g><path d="M 10 16L 10 10C 12.5913 10.5167 15.2656 10.7871 18 10.7871C 20.7344 10.7871 23.4087 10.5167 26 10.000001L 26 16M 26 35.500002L 26 41.500002C 23.4087 40.983302 20.7344 40.712902 18 40.712902C 15.2656 40.712902 12.5913 40.983302 10 41.500002L 10 35.500002M 26 35.500002L 26 16M 10 16L 10 35.500002"></path></g></g></g><g id="g-root-cp_3_g-3_mbpw2zhkq3gt-fill" data-item-order="-590860" transform="translate(363.15625, 344)"><g id="cp_3_g-3_mbpw2zhkq3gt-fill-merged" stroke="none" fill="#4e8cf1" fill-opacity="1"><g><path d="M52 94C75.196 94 94 75.196 94 52C94 28.804 75.196 10 52 10C28.804 10 10 28.804 10 52C10 75.196 28.804 94 52 94 M52 78.25C66.497 78.25 78.25 66.497 78.25 52C78.25 37.502 66.497 25.75 52 25.75C37.502 25.75 25.75 37.502 25.75 52C25.75 66.497 37.502 78.25 52 78.25"></path></g></g></g><g id="g-root-cp_3_g-3_mbpw2zhkq3gt-stroke" data-item-order="-590860" transform="translate(363.15625, 344)"><g id="cp_3_g-3_mbpw2zhkq3gt-stroke" fill="none" stroke-linecap="round" stroke-linejoin="round" stroke-miterlimit="4" stroke="#ffffff" stroke-width="1" stroke-opacity="1"><g><path d="M 52 94C 75.196 94 94 75.196 94 52C 94 28.804 75.196 10 52 10C 28.804 10 10 28.804 10 52C 10 75.196 28.804 94 52 94ZM 52 78.25C 66.4975 78.25 78.25 66.4975 78.25 52C 78.25 37.5025 66.4975 25.75 52 25.75C 37.5025 25.75 25.75 37.5025 25.75 52C 25.75 66.4975 37.5025 78.25 52 78.25Z"></path></g></g></g><g id="g-root-sy_3_Subtract_mbpw2zhkq3gu-fill" data-item-order="-590853" transform="translate(447.15625, 386)"></g><g id="g-root-sy_3_Subtract_mbpw2zhkq3gu-stroke" data-item-order="-590853" transform="translate(447.15625, 386)"><g id="sy_3_Subtract_mbpw2zhkq3gu-stroke" fill="none" stroke-linecap="round" stroke-linejoin="round" stroke-miterlimit="4" stroke="#484848" stroke-width="1" stroke-opacity="1"><g><path d="M 49.375 10L 10 10"></path></g></g></g><g id="g-root-sy_3_Subtract-start_hwiv1nhkq13b-fill" data-item-order="-590851" transform="translate(486.53125, 383.375)"></g><g id="g-root-sy_3_Subtract-start_hwiv1nhkq13b-stroke" data-item-order="-590851" transform="translate(486.53125, 383.375)"><g id="sy_3_Subtract-start_hwiv1nhkq13b-stroke" fill="none" stroke-linecap="round" stroke-linejoin="round" stroke-miterlimit="4" stroke="#484848" stroke-width="1" stroke-opacity="1"><g><path d="M 12.625 10C 14.0738 10 15.25 11.1762 15.25 12.625C 15.25 14.0738 14.0738 15.25 12.625 15.25C 11.1762 15.25 10 14.0738 10 12.625C 10 11.1762 11.1762 10 12.625 10Z"></path></g></g></g><g id="g-root-sy_3_Subtract_1_hwiv1nhkq13c-fill" data-item-order="-590847" transform="translate(324.15625, 386)"></g><g id="g-root-sy_3_Subtract_1_hwiv1nhkq13c-stroke" data-item-order="-590847" transform="translate(324.15625, 386)"><g id="sy_3_Subtract_1_hwiv1nhkq13c-stroke" fill="none" stroke-linecap="round" stroke-linejoin="round" stroke-miterlimit="4" stroke="#484848" stroke-width="1" stroke-opacity="1"><g><path d="M 10 10L 49 10"></path></g></g></g><g id="g-root-sy_3_Subtract-start_1_hwiv1nhkq13d-fill" data-item-order="-590845" transform="translate(318.15625, 383)"></g><g id="g-root-sy_3_Subtract-start_1_hwiv1nhkq13d-stroke" data-item-order="-590845" transform="translate(318.15625, 383)"><g id="sy_3_Subtract-start_1_hwiv1nhkq13d-stroke" fill="none" stroke-linecap="round" stroke-linejoin="round" stroke-miterlimit="4" stroke="#484848" stroke-width="1" stroke-opacity="1"><g><path d="M 13 10C 11.3443 10 10 11.3443 10 13C 10 14.6557 11.3443 16 13 16C 14.6557 16 16 14.6557 16 13C 16 11.3443 14.6557 10 13 10Z"></path></g></g></g><g id="g-root-cp_3_lines_2_hwiv1nhkq13e-fill" data-item-order="-590832" transform="translate(397.15625, 427.25)"><g id="cp_3_lines_2_hwiv1nhkq13e-fill-merged" stroke="none" fill="#4e8cf1" fill-opacity="1"><g><path d="M10 41.5C12.591 40.983 15.266 40.713 18 40.713C20.734 40.713 23.409 40.983 26 41.5 V10C23.409 10.517 20.734 10.787 18 10.787C15.266 10.787 12.591 10.517 10 10 V41.5"></path></g></g></g><g id="g-root-cp_3_lines_2_hwiv1nhkq13e-stroke" data-item-order="-590832" transform="translate(397.15625, 427.25)"><g id="cp_3_lines_2_hwiv1nhkq13e-stroke" fill="none" stroke-linecap="round" stroke-linejoin="round" stroke-miterlimit="4" stroke="#ffffff" stroke-width="1" stroke-opacity="1"><g><path d="M 10 16L 10 10C 12.5913 10.5167 15.2656 10.7871 18 10.7871C 20.7344 10.7871 23.4087 10.5167 26 10.000001L 26 16M 26 35.5L 26 41.5C 23.4087 40.9833 20.7344 40.7129 18 40.7129C 15.2656 40.7129 12.5913 40.9833 10 41.5L 10 35.5M 26 35.5L 26 16M 10 16L 10 35.5"></path></g></g></g><g id="g-root-cp_4_g-4_dgpcx7hkq1vn-fill" data-item-order="-590804" transform="translate(363.15625, 458)"><g id="cp_4_g-4_dgpcx7hkq1vn-fill-merged" stroke="none" fill="#5d9bff" fill-opacity="1"><g><path d="M52 94C75.196 94 94 75.196 94 52C94 28.804 75.196 10 52 10C28.804 10 10 28.804 10 52C10 75.196 28.804 94 52 94 M52 78.25C66.497 78.25 78.25 66.497 78.25 52C78.25 37.502 66.497 25.75 52 25.75C37.502 25.75 25.75 37.502 25.75 52C25.75 66.497 37.502 78.25 52 78.25"></path></g></g></g><g id="g-root-cp_4_g-4_dgpcx7hkq1vn-stroke" data-item-order="-590804" transform="translate(363.15625, 458)"><g id="cp_4_g-4_dgpcx7hkq1vn-stroke" fill="none" stroke-linecap="round" stroke-linejoin="round" stroke-miterlimit="4" stroke="#ffffff" stroke-width="1" stroke-opacity="1"><g><path d="M 52 94C 75.196 94 94 75.196 94 52C 94 28.804 75.196 10 52 10C 28.804 10 10 28.804 10 52C 10 75.196 28.804 94 52 94ZM 52 78.25C 66.4975 78.25 78.25 66.4975 78.25 52C 78.25 37.5025 66.4975 25.75 52 25.75C 37.5025 25.75 25.75 37.5025 25.75 52C 25.75 66.4975 37.5025 78.25 52 78.25Z"></path></g></g></g><g id="g-root-sy_4_Subtract_dgpcx7hkq1vo-fill" data-item-order="-590797" transform="translate(447.15625, 500)"></g><g id="g-root-sy_4_Subtract_dgpcx7hkq1vo-stroke" data-item-order="-590797" transform="translate(447.15625, 500)"><g id="sy_4_Subtract_dgpcx7hkq1vo-stroke" fill="none" stroke-linecap="round" stroke-linejoin="round" stroke-miterlimit="4" stroke="#484848" stroke-width="1" stroke-opacity="1"><g><path d="M 49.375 10L 10 10"></path></g></g></g><g id="g-root-sy_4_Subtract-start_dgpcx7hkq1vp-fill" data-item-order="-590795" transform="translate(486.53125, 497.375)"></g><g id="g-root-sy_4_Subtract-start_dgpcx7hkq1vp-stroke" data-item-order="-590795" transform="translate(486.53125, 497.375)"><g id="sy_4_Subtract-start_dgpcx7hkq1vp-stroke" fill="none" stroke-linecap="round" stroke-linejoin="round" stroke-miterlimit="4" stroke="#484848" stroke-width="1" stroke-opacity="1"><g><path d="M 12.625 10C 14.0738 10 15.25 11.1762 15.25 12.625C 15.25 14.0738 14.0738 15.25 12.625 15.25C 11.1762 15.25 10 14.0738 10 12.625C 10 11.1762 11.1762 10 12.625 10Z"></path></g></g></g><g id="g-root-sy_4_Subtract_1_dgpcx7hkq1vq-fill" data-item-order="-590791" transform="translate(324.15625, 500)"></g><g id="g-root-sy_4_Subtract_1_dgpcx7hkq1vq-stroke" data-item-order="-590791" transform="translate(324.15625, 500)"><g id="sy_4_Subtract_1_dgpcx7hkq1vq-stroke" fill="none" stroke-linecap="round" stroke-linejoin="round" stroke-miterlimit="4" stroke="#484848" stroke-width="1" stroke-opacity="1"><g><path d="M 10 10L 49 10"></path></g></g></g><g id="g-root-sy_4_Subtract-start_1_4l2cobhkq2of-fill" data-item-order="-590789" transform="translate(318.15625, 497)"></g><g id="g-root-sy_4_Subtract-start_1_4l2cobhkq2of-stroke" data-item-order="-590789" transform="translate(318.15625, 497)"><g id="sy_4_Subtract-start_1_4l2cobhkq2of-stroke" fill="none" stroke-linecap="round" stroke-linejoin="round" stroke-miterlimit="4" stroke="#484848" stroke-width="1" stroke-opacity="1"><g><path d="M 13 10C 11.3443 10 10 11.3443 10 13C 10 14.6557 11.3443 16 13 16C 14.6557 16 16 14.6557 16 13C 16 11.3443 14.6557 10 13 10Z"></path></g></g></g><g id="g-root-cp_4_lines_3_90vusrhkq2o0-fill" data-item-order="-590782" transform="translate(397.15625, 541.25)"><g id="cp_4_lines_3_90vusrhkq2o0-fill-merged" stroke="none" fill="#5d9bff" fill-opacity="1"><g><path d="M10 59.5C12.591 58.983 15.266 58.713 18 58.713C20.734 58.713 23.409 58.983 26 59.5 V10C23.409 10.517 20.734 10.787 18 10.787C15.266 10.787 12.591 10.517 10 10 V59.5"></path></g></g></g><g id="g-root-cp_4_lines_3_90vusrhkq2o0-stroke" data-item-order="-590782" transform="translate(397.15625, 541.25)"><g id="cp_4_lines_3_90vusrhkq2o0-stroke" fill="none" stroke-linecap="round" stroke-linejoin="round" stroke-miterlimit="4" stroke="#ffffff" stroke-width="1" stroke-opacity="1"><g><path d="M 10 16L 10 10C 12.5913 10.5167 15.2656 10.7871 18 10.7871C 20.7344 10.7871 23.4087 10.5167 26 10.000001L 26 16M 26 53.500019L 26 59.500019C 23.4087 58.983319 20.7344 58.712919 18 58.712919C 15.2656 58.712919 12.5913 58.983319 10 59.500019L 10 53.500019M 26 53.500019L 26 16M 10 16L 10 53.500019"></path></g></g></g><g id="g-root-cp_5_g-5_90vusrhkq2o1-fill" data-item-order="-590760" transform="translate(363.15625, 590)"><g id="cp_5_g-5_90vusrhkq2o1-fill-merged" stroke="none" fill="#95bdff" fill-opacity="1"><g><path d="M52 94C75.196 94 94 75.196 94 52C94 28.804 75.196 10 52 10C28.804 10 10 28.804 10 52C10 75.196 28.804 94 52 94 M52 78.25C66.497 78.25 78.25 66.497 78.25 52C78.25 37.502 66.497 25.75 52 25.75C37.502 25.75 25.75 37.502 25.75 52C25.75 66.497 37.502 78.25 52 78.25"></path></g></g></g><g id="g-root-cp_5_g-5_90vusrhkq2o1-stroke" data-item-order="-590760" transform="translate(363.15625, 590)"><g id="cp_5_g-5_90vusrhkq2o1-stroke" fill="none" stroke-linecap="round" stroke-linejoin="round" stroke-miterlimit="4" stroke="#ffffff" stroke-width="1" stroke-opacity="1"><g><path d="M 52 94C 75.196 94 94 75.196 94 52C 94 28.804 75.196 10 52 10C 28.804 10 10 28.804 10 52C 10 75.196 28.804 94 52 94ZM 52 78.25C 66.4975 78.25 78.25 66.4975 78.25 52C 78.25 37.5025 66.4975 25.75 52 25.75C 37.5025 25.75 25.75 37.5025 25.75 52C 25.75 66.4975 37.5025 78.25 52 78.25Z"></path></g></g></g><g id="g-root-sy_5_Subtract_58ujvhkq3gq-fill" data-item-order="-590753" transform="translate(447.15625, 632)"></g><g id="g-root-sy_5_Subtract_58ujvhkq3gq-stroke" data-item-order="-590753" transform="translate(447.15625, 632)"><g id="sy_5_Subtract_58ujvhkq3gq-stroke" fill="none" stroke-linecap="round" stroke-linejoin="round" stroke-miterlimit="4" stroke="#484848" stroke-width="1" stroke-opacity="1"><g><path d="M 49.375 10L 10 10"></path></g></g></g><g id="g-root-sy_5_Subtract-start_58ujvhkq3gr-fill" data-item-order="-590751" transform="translate(486.53125, 629.375)"></g><g id="g-root-sy_5_Subtract-start_58ujvhkq3gr-stroke" data-item-order="-590751" transform="translate(486.53125, 629.375)"><g id="sy_5_Subtract-start_58ujvhkq3gr-stroke" fill="none" stroke-linecap="round" stroke-linejoin="round" stroke-miterlimit="4" stroke="#484848" stroke-width="1" stroke-opacity="1"><g><path d="M 12.625 10C 14.0738 10 15.25 11.1762 15.25 12.625C 15.25 14.0738 14.0738 15.25 12.625 15.25C 11.1762 15.25 10 14.0738 10 12.625C 10 11.1762 11.1762 10 12.625 10Z"></path></g></g></g><g id="g-root-sy_5_Subtract_1_58ujvhkq3gs-fill" data-item-order="-590747" transform="translate(324.15625, 632)"></g><g id="g-root-sy_5_Subtract_1_58ujvhkq3gs-stroke" data-item-order="-590747" transform="translate(324.15625, 632)"><g id="sy_5_Subtract_1_58ujvhkq3gs-stroke" fill="none" stroke-linecap="round" stroke-linejoin="round" stroke-miterlimit="4" stroke="#484848" stroke-width="1" stroke-opacity="1"><g><path d="M 10 10L 49 10"></path></g></g></g><g id="g-root-sy_5_Subtract-start_1_58ujvhkq3gt-fill" data-item-order="-590745" transform="translate(318.15625, 629)"></g><g id="g-root-sy_5_Subtract-start_1_58ujvhkq3gt-stroke" data-item-order="-590745" transform="translate(318.15625, 629)"><g id="sy_5_Subtract-start_1_58ujvhkq3gt-stroke" fill="none" stroke-linecap="round" stroke-linejoin="round" stroke-miterlimit="4" stroke="#484848" stroke-width="1" stroke-opacity="1"><g><path d="M 13 10C 11.3443 10 10 11.3443 10 13C 10 14.6557 11.3443 16 13 16C 14.6557 16 16 14.6557 16 13C 16 11.3443 14.6557 10 13 10Z"></path></g></g></g><g id="g-root-tx_3_1cy0fqjhksv0r-fill" data-item-order="0" transform="translate(396.125, 368)"><g id="tx_3_1cy0fqjhksv0r-fill-merged" stroke="none" fill="#484848" fill-opacity="1"><g><text style="font: 25px Roboto, sans-serif; white-space: pre;" transform="translate(19.03125, 25)" font-size="25px" font-family="Roboto, sans-serif"><tspan x="-7.03" y="14" dominant-baseline="ideographic">3</tspan></text></g></g></g><g id="g-root-tx_3_1cy0fqjhksv0r-stroke" data-item-order="0" transform="translate(396.125, 368)"></g><g id="g-root-tx_detectio_1qclo63g6xon9-fill" data-item-order="0" transform="translate(225.953125, 374)"><g id="tx_detectio_1qclo63g6xon9-fill-merged" stroke="none" fill="#484848" fill-opacity="1"><g><text style="font: 11.3px Roboto, sans-serif; white-space: pre;" transform="translate(93.203125, 17)" font-size="11.3px" font-family="Roboto, sans-serif"><tspan x="-81.2" y="6" dominant-baseline="ideographic">Detection Plane</tspan></text></g></g></g><g id="g-root-tx_detectio_1qclo63g6xon9-stroke" data-item-order="0" transform="translate(225.953125, 374)"></g><g id="g-root-tx_anomalyd_1414ty3g6wb29-fill" data-item-order="0" transform="translate(561.15625, 356)"><g id="tx_anomalyd_1414ty3g6wb29-fill-merged" stroke="none" fill="#484848" fill-opacity="1"><g><text style="font: 15px Roboto, sans-serif; white-space: pre;" transform="translate(10, 19)" font-size="15px" font-family="Roboto, sans-serif"><tspan x="2" y="9" dominant-baseline="ideographic">Anomaly Detection</tspan></text></g></g></g><g id="g-root-tx_anomalyd_1414ty3g6wb29-stroke" data-item-order="0" transform="translate(561.15625, 356)"></g><g id="g-root-tx_isolatio_1uqjeejhkrhfu-fill" data-item-order="0" transform="translate(561.15625, 386)"><g id="tx_isolatio_1uqjeejhkrhfu-fill-merged" stroke="none" fill="#484848" fill-opacity="1"><g><text style="font: 15px Roboto, sans-serif; white-space: pre;" transform="translate(10, 28)" font-size="15px" font-family="Roboto, sans-serif"><tspan x="2" y="0" dominant-baseline="ideographic">Isolation Forest model processes </tspan><tspan x="2" y="18" dominant-baseline="ideographic">features and detects anomalies</tspan></text></g></g></g><g id="g-root-tx_isolatio_1uqjeejhkrhfu-stroke" data-item-order="0" transform="translate(561.15625, 386)"></g><g id="g-root-ic_1_1414ty3g6wb2a-fill" data-item-order="0" transform="translate(501.15625, 356)"></g><g id="g-root-ic_1_1414ty3g6wb2a-stroke" data-item-order="0" transform="translate(501.15625, 356)"><g id="ic_1_1414ty3g6wb2a-stroke" fill="none" stroke-linecap="round" stroke-linejoin="round" stroke-miterlimit="4" stroke="#484848" stroke-width="1" stroke-opacity="1"><g><path d="M 34 20C 25.757999 19.862 17.234001 25.826 11.878 31.722C 10.713643 33.015198 10.713643 34.978806 11.878 36.272003C 17.118 42.046001 25.610001 48.139999 34 48C 42.400002 48.139999 50.882 42.046001 56.127998 36.271999C 57.292362 34.978806 57.292362 33.015198 56.128002 31.722002C 50.765999 25.826 42.242001 19.862 34 20ZM 25.147999 35L 30 35L 32 29L 36 39L 38 33L 42.717999 33M 44 34C 44 39.52285 39.52285 44 34 44C 28.477154 44 24 39.52285 24 34C 24 28.477152 28.477154 24 34 24C 39.52285 24 44 28.477152 44 34Z"></path></g></g></g><g id="g-root-tx_opnsense_1d308ffhkq3ns-fill" data-item-order="0" transform="translate(14, 272)"><g id="tx_opnsense_1d308ffhkq3ns-fill-merged" stroke="none" fill="#484848" fill-opacity="1"><g><text style="font: 15px Roboto, sans-serif; white-space: pre;" transform="translate(245.15625, 28)" font-size="15px" font-family="Roboto, sans-serif"><tspan x="-233.16" y="0" dominant-baseline="ideographic">OPNsense logs and Suricata alerts </tspan><tspan x="-222.2" y="18" dominant-baseline="ideographic">are collected and parsed by log\_</tspan></text></g></g></g><g id="g-root-tx_opnsense_1d308ffhkq3ns-stroke" data-item-order="0" transform="translate(14, 272)"></g><g id="g-root-tx_ruleenfo_5976jg6uxhp-fill" data-item-order="0" transform="translate(126.6875, 470)"><g id="tx_ruleenfo_5976jg6uxhp-fill-merged" stroke="none" fill="#484848" fill-opacity="1"><g><text style="font: 15px Roboto, sans-serif; white-space: pre;" transform="translate(132.46875, 19)" font-size="15px" font-family="Roboto, sans-serif"><tspan x="-120.47" y="9" dominant-baseline="ideographic">Rule Enforcement</tspan></text></g></g></g><g id="g-root-tx_ruleenfo_5976jg6uxhp-stroke" data-item-order="0" transform="translate(126.6875, 470)"></g><g id="g-root-ic_1_5976jg6uxhq-fill" data-item-order="0" transform="translate(261.15625, 470)"></g><g id="g-root-ic_1_5976jg6uxhq-stroke" data-item-order="0" transform="translate(261.15625, 470)"><g id="ic_1_5976jg6uxhq-stroke" fill="none" stroke-linecap="round" stroke-linejoin="round" stroke-miterlimit="4" stroke="#484848" stroke-width="1" stroke-opacity="1"><g><path d="M 43.282001 20.656C 43.282009 22.308956 41.944946 23.65049 40.292 23.656L 26.799999 23.656C 25.673397 23.748219 24.590597 23.199348 23.998974 22.236166C 23.407351 21.272984 23.407351 20.059017 23.998974 19.095835C 24.590597 18.132652 25.673397 17.583782 26.800001 17.676001L 40.302002 17.676001C 41.943272 17.686905 43.271095 19.01473 43.282001 20.656ZM 11.666 36.658001L 20.114 36.222L 19.096001 28.257999M 20.114 36.222C 11 33.922001 7.554 20.234001 15.092 14.724M 56.334 15.782L 47.886002 16.218L 48.903999 24.181999M 47.886002 16.218C 56.993999 18.518 60.445999 32.206001 52.908001 37.718002M 31.172001 23.646L 35.91 23.646L 35.91 40.681999L 31.172001 40.681999ZM 25.424 40.681999L 41.655998 40.681999C 42.760571 40.681999 43.655998 41.577431 43.655998 42.681999L 43.655998 46.012001L 43.655998 46.012001L 23.424 46.012001L 23.424 46.012001L 23.424 42.681999C 23.424 41.577431 24.319431 40.681999 25.424 40.681999ZM 16.18 46.082001L 50.902 46.082001C 52.006569 46.082001 52.902 46.977432 52.902 48.082001L 52.902 53.282001L 52.902 53.282001L 14.18 53.282001L 14.18 53.282001L 14.18 48.082001C 14.18 46.977432 15.07543 46.082001 16.18 46.082001Z"></path></g></g></g><g id="g-root-tx_telemetr_1qclo63g6xona-fill" data-item-order="0" transform="translate(501.15625, 260)"><g id="tx_telemetr_1qclo63g6xona-fill-merged" stroke="none" fill="#484848" fill-opacity="1"><g><text style="font: 11.3px Roboto, sans-serif; white-space: pre;" transform="translate(10, 17)" font-size="11.3px" font-family="Roboto, sans-serif"><tspan x="2" y="6" dominant-baseline="ideographic">Telemetry Plane</tspan></text></g></g></g><g id="g-root-tx_telemetr_1qclo63g6xona-stroke" data-item-order="0" transform="translate(501.15625, 260)"></g><g id="g-root-tx_2_1cy0fqjhkrhmx-fill" data-item-order="0" transform="translate(396.125, 254)"><g id="tx_2_1cy0fqjhkrhmx-fill-merged" stroke="none" fill="#484848" fill-opacity="1"><g><text style="font: 25px Roboto, sans-serif; white-space: pre;" transform="translate(19.03125, 25)" font-size="25px" font-family="Roboto, sans-serif"><tspan x="-7.03" y="14" dominant-baseline="ideographic">2</tspan></text></g></g></g><g id="g-root-tx_2_1cy0fqjhkrhmx-stroke" data-item-order="0" transform="translate(396.125, 254)"></g><g id="g-root-tx_logcolle_1lws61ng6wb9p-fill" data-item-order="0" transform="translate(82.0625, 242)"><g id="tx_logcolle_1lws61ng6wb9p-fill-merged" stroke="none" fill="#484848" fill-opacity="1"><g><text style="font: 15px Roboto, sans-serif; white-space: pre;" transform="translate(177.09375, 19)" font-size="15px" font-family="Roboto, sans-serif"><tspan x="-165.09" y="9" dominant-baseline="ideographic">Log Collection &amp; Parsing</tspan></text></g></g></g><g id="g-root-tx_logcolle_1lws61ng6wb9p-stroke" data-item-order="0" transform="translate(82.0625, 242)"></g><g id="g-root-ic_sett_1lws61ng6wb9q-fill" data-item-order="0" transform="translate(261.15625, 242)"></g><g id="g-root-ic_sett_1lws61ng6wb9q-stroke" data-item-order="0" transform="translate(261.15625, 242)"><g id="ic_sett_1lws61ng6wb9q-stroke" fill="none" stroke-linecap="round" stroke-linejoin="round" stroke-miterlimit="4" stroke="#484848" stroke-width="1" stroke-opacity="1"><g><path d="M 51.133598 17.62278C 54.152802 17.62278 56.600399 16.252159 56.600399 14.56142C 56.600399 12.87066 54.152802 11.500046 51.133598 11.500046C 48.114399 11.500046 45.666801 12.87066 45.666801 14.56142C 45.666801 16.252159 48.114399 17.62278 51.133598 17.62278ZM 45.666801 14.5612L 45.666801 22.87064C 45.666801 24.61998 48.072201 25.931999 51.133598 25.931999C 54.195 25.931999 56.600399 24.61998 56.600399 22.87064L 56.600399 14.5612M 34.109398 17.62278C 37.128601 17.62278 39.576202 16.252159 39.576202 14.56142C 39.576202 12.87066 37.128601 11.500046 34.109398 11.500046C 31.0902 11.500046 28.6427 12.87066 28.6427 14.56142C 28.6427 16.252159 31.0902 17.62278 34.109398 17.62278ZM 28.6427 14.5612L 28.6427 22.87064C 28.6427 24.61998 31.048 25.931999 34.109398 25.931999C 37.170799 25.931999 39.576202 24.61998 39.576202 22.87064L 39.576202 14.5612M 16.866381 17.62278C 19.88558 17.62278 22.33312 16.252159 22.33312 14.56142C 22.33312 12.87066 19.88558 11.500046 16.866381 11.500046C 13.8472 11.500046 11.399658 12.87066 11.399658 14.56142C 11.399658 16.252159 13.8472 17.62278 16.866381 17.62278ZM 22.33312 18.764641C 22.33312 20.4554 19.88558 21.826019 16.866381 21.826019C 13.8472 21.826019 11.399658 20.4554 11.399658 18.764641M 39.576202 18.764641C 39.576202 20.4554 37.128601 21.826019 34.109398 21.826019C 31.0902 21.826019 28.6427 20.4554 28.6427 18.764641M 56.600399 18.764641C 56.600399 20.4554 54.152802 21.826019 51.133598 21.826019C 48.114399 21.826019 45.666801 20.4554 45.666801 18.764641M 11.399658 14.5612L 11.399658 22.87064C 11.399658 24.61998 13.80502 25.931999 16.866381 25.931999C 19.927761 25.931999 22.33312 24.61998 22.33312 22.87064L 22.33312 14.5612M 11.5 56.5C 14.48672 56.5 17.473461 56.5 20.46018 53.5C 23.446899 56.5 26.43362 56.5 27.23008 56.5C 28.026541 56.5 31.013201 56.5 34 53.5C 36.986801 56.5 39.9734 56.5 40.77 56.5C 41.566399 56.5 44.553001 56.5 47.539799 53.5C 50.5266 56.5 53.513199 56.5 56.5 56.5M 25.100079 51.155998C 25.100079 50.556 24.90008 50.155998 24.50008 49.756001L 23.50008 48.756001C 22.90008 48.155998 22.700081 47.355999 23.100079 46.556C 23.50008 45.756001 24.100079 45.355999 25.100079 45.355999L 26.50008 45.355999C 27.10008 45.355999 27.500059 45.155998 27.900061 44.756001C 28.30006 44.355999 28.50008 43.756001 28.50008 43.355999L 28.50008 41.956001C 28.50008 41.155998 28.900061 40.356003 29.70006 39.956001C 30.5 39.556 31.299999 39.756001 31.9 40.356003L 32.900002 41.356003C 33.299999 41.756001 33.700001 41.956001 34.299999 41.956001C 34.900002 41.956001 35.299999 41.756001 35.700001 41.356003L 36.700001 40.356003C 37.299999 39.756001 38.099998 39.556 38.900002 39.956001C 39.700001 40.356003 40.099998 40.956001 40.099998 41.956001L 40.099998 43.355999C 40.099998 43.956001 40.299999 44.355999 40.700001 44.756001C 41.099998 45.155998 41.700001 45.355999 42.099998 45.355999L 43.5 45.355999C 44.299999 45.355999 45.099998 45.756001 45.5 46.556C 45.900002 47.355999 45.700001 48.155998 45.099998 48.756001L 43.700001 49.756001C 43.299999 50.155998 43.099998 50.556 43.099998 51.155998M 30.299999 51.1562C 30.299999 49.1562 31.9 47.356201 34.099998 47.356201C 36.099998 47.356201 37.900002 48.9562 37.900002 51.1562M 10 10M 46.099998 39.747803L 51.099998 35.747803L 51.099998 30.747801M 10 10M 22.1001 39.747803L 17.1001 35.747803L 17.1001 30.747801M 34 36.425201L 34 29.7479"></path></g></g></g><g id="g-root-tx_controlp_1qclo63g6xon8-fill" data-item-order="0" transform="translate(501.15625, 488)"><g id="tx_controlp_1qclo63g6xon8-fill-merged" stroke="none" fill="#484848" fill-opacity="1"><g><text style="font: 11.3px Roboto, sans-serif; white-space: pre;" transform="translate(10, 17)" font-size="11.3px" font-family="Roboto, sans-serif"><tspan x="2" y="6" dominant-baseline="ideographic">Control Plane</tspan></text></g></g></g><g id="g-root-tx_controlp_1qclo63g6xon8-stroke" data-item-order="0" transform="translate(501.15625, 488)"></g><g id="g-root-tx_fastapis_909dpnhkswlo-fill" data-item-order="0" transform="translate(19.875, 500)"><g id="tx_fastapis_909dpnhkswlo-fill-merged" stroke="none" fill="#484848" fill-opacity="1"><g><text style="font: 15px Roboto, sans-serif; white-space: pre;" transform="translate(239.28125, 37)" font-size="15px" font-family="Roboto, sans-serif"><tspan x="-224.2" y="-9" dominant-baseline="ideographic">FastAPI server receives detection </tspan><tspan x="-227.28" y="9" dominant-baseline="ideographic">alerts and enforces blocking rules </tspan><tspan x="-161.06" y="27" dominant-baseline="ideographic">via OPNsense REST API</tspan></text></g></g></g><g id="g-root-tx_fastapis_909dpnhkswlo-stroke" data-item-order="0" transform="translate(19.875, 500)"></g><g id="g-root-tx_kalilinu_4mxrxnhkq1ou-fill" data-item-order="0" transform="translate(561.15625, 158)"><g id="tx_kalilinu_4mxrxnhkq1ou-fill-merged" stroke="none" fill="#484848" fill-opacity="1"><g><text style="font: 15px Roboto, sans-serif; white-space: pre;" transform="translate(10, 28)" font-size="15px" font-family="Roboto, sans-serif"><tspan x="2" y="0" dominant-baseline="ideographic">Kali Linux attacker launches </tspan><tspan x="2" y="18" dominant-baseline="ideographic">various cyberattacks</tspan></text></g></g></g><g id="g-root-tx_kalilinu_4mxrxnhkq1ou-stroke" data-item-order="0" transform="translate(561.15625, 158)"></g><g id="g-root-tx_opnsense_18n6qazhksv7q-fill" data-item-order="0" transform="translate(561.15625, 632)"><g id="tx_opnsense_18n6qazhksv7q-fill-merged" stroke="none" fill="#484848" fill-opacity="1"><g><text style="font: 15px Roboto, sans-serif; white-space: pre;" transform="translate(10, 37)" font-size="15px" font-family="Roboto, sans-serif"><tspan x="2" y="-9" dominant-baseline="ideographic">OPNsense firewall blocks </tspan><tspan x="2" y="9" dominant-baseline="ideographic">malicious traffic based on control </tspan><tspan x="2" y="27" dominant-baseline="ideographic">plane instructions</tspan></text></g></g></g><g id="g-root-tx_opnsense_18n6qazhksv7q-stroke" data-item-order="0" transform="translate(561.15625, 632)"></g><g id="g-root-ic_filt_1hduahng6tiiu-fill" data-item-order="0" transform="translate(501.15625, 602)"></g><g id="g-root-ic_filt_1hduahng6tiiu-stroke" data-item-order="0" transform="translate(501.15625, 602)"><g id="ic_filt_1hduahng6tiiu-stroke" fill="none" stroke-linecap="round" stroke-linejoin="round" stroke-miterlimit="4" stroke="#484848" stroke-width="1" stroke-opacity="1"><g><path d="M 23.699959 56.5L 43.700001 56.5M 23.699959 11.5L 43.700001 11.5M 29.70006 18.400101C 29.479139 18.400101 29.300039 18.22102 29.300039 18.000099C 29.300039 17.779181 29.479139 17.6001 29.70006 17.6001M 29.69998 18.400101C 29.920879 18.400101 30.1 18.22102 30.1 18.000099C 30.1 17.779181 29.920879 17.6001 29.69998 17.6001M 37.700001 18.400101C 37.479202 18.400101 37.299999 18.22102 37.299999 18.000099C 37.299999 17.779181 37.479202 17.6001 37.700001 17.6001M 37.700001 18.400101C 37.920799 18.400101 38.099998 18.22102 38.099998 18.000099C 38.099998 17.779181 37.920799 17.6001 37.700001 17.6001M 29.70006 26.400101C 29.479139 26.400101 29.300039 26.22102 29.300039 26.000099C 29.300039 25.779179 29.479139 25.6001 29.70006 25.6001M 29.69998 26.400101C 29.920879 26.400101 30.1 26.22102 30.1 26.000099C 30.1 25.779179 29.920879 25.6001 29.69998 25.6001M 37.700001 26.400101C 37.479202 26.400101 37.299999 26.22102 37.299999 26.000099C 37.299999 25.779179 37.479202 25.6001 37.700001 25.6001M 37.700001 26.400101C 37.920799 26.400101 38.099998 26.22102 38.099998 26.000099C 38.099998 25.779179 37.920799 25.6001 37.700001 25.6001M 29.70006 34.400002C 29.479139 34.400002 29.300039 34.221001 29.300039 34C 29.300039 33.779198 29.479139 33.599998 29.70006 33.599998M 29.69998 34.400002C 29.920879 34.400002 30.1 34.221001 30.1 34C 30.1 33.779198 29.920879 33.599998 29.69998 33.599998M 37.700001 34.400002C 37.479202 34.400002 37.299999 34.221001 37.299999 34C 37.299999 33.779198 37.479202 33.599998 37.700001 33.599998M 37.700001 34.400002C 37.920799 34.400002 38.099998 34.221001 38.099998 34C 38.099998 33.779198 37.920799 33.599998 37.700001 33.599998M 29.70006 42.400002C 29.479139 42.400002 29.300039 42.221001 29.300039 42C 29.300039 41.779198 29.479139 41.599998 29.70006 41.599998M 29.69998 42.400002C 29.920879 42.400002 30.1 42.221001 30.1 42C 30.1 41.779198 29.920879 41.599998 29.69998 41.599998M 37.700001 42.400002C 37.479202 42.400002 37.299999 42.221001 37.299999 42C 37.299999 41.779198 37.479202 41.599998 37.700001 41.599998M 37.700001 42.400002C 37.920799 42.400002 38.099998 42.221001 38.099998 42C 38.099998 41.779198 37.920799 41.599998 37.700001 41.599998M 29.70006 50.400002C 29.479139 50.400002 29.300039 50.221001 29.300039 50C 29.300039 49.779202 29.479139 49.599998 29.70006 49.599998M 29.69998 50.400002C 29.920879 50.400002 30.1 50.221001 30.1 50C 30.1 49.779202 29.920879 49.599998 29.69998 49.599998M 37.700001 50.400002C 37.479202 50.400002 37.299999 50.221001 37.299999 50C 37.299999 49.779202 37.479202 49.599998 37.700001 49.599998M 37.700001 50.400002C 37.920799 50.400002 38.099998 50.221001 38.099998 50C 38.099998 49.779202 37.920799 49.599998 37.700001 49.599998M 10 10M 21.700001 40L 11.5 43.799999M 10 10M 21.700001 27.99996L 11.5 24.199959M 45.299999 34L 56.460999 34M 10 10M 51.5 29L 56.5 34L 51.5 39"></path></g></g></g><g id="g-root-tx_blocking_1hduahng6tiit-fill" data-item-order="0" transform="translate(561.15625, 602)"><g id="tx_blocking_1hduahng6tiit-fill-merged" stroke="none" fill="#484848" fill-opacity="1"><g><text style="font: 15px Roboto, sans-serif; white-space: pre;" transform="translate(10, 19)" font-size="15px" font-family="Roboto, sans-serif"><tspan x="2" y="9" dominant-baseline="ideographic">Blocking Action</tspan></text></g></g></g><g id="g-root-tx_blocking_1hduahng6tiit-stroke" data-item-order="0" transform="translate(561.15625, 602)"></g><g id="g-root-tx_opnsense_1ursp7fg6xr0r-fill" data-item-order="0" transform="translate(252.296875, 620)"><g id="tx_opnsense_1ursp7fg6xr0r-fill-merged" stroke="none" fill="#484848" fill-opacity="1"><g><text style="font: 11.3px Roboto, sans-serif; white-space: pre;" transform="translate(66.859375, 17)" font-size="11.3px" font-family="Roboto, sans-serif"><tspan x="-54.86" y="6" dominant-baseline="ideographic">OPNsense</tspan></text></g></g></g><g id="g-root-tx_opnsense_1ursp7fg6xr0r-stroke" data-item-order="0" transform="translate(252.296875, 620)"></g><g id="g-root-tx_1_94088bhkq32n-fill" data-item-order="0" transform="translate(396.125, 140)"><g id="tx_1_94088bhkq32n-fill-merged" stroke="none" fill="#484848" fill-opacity="1"><g><text style="font: 25px Roboto, sans-serif; white-space: pre;" transform="translate(19.03125, 25)" font-size="25px" font-family="Roboto, sans-serif"><tspan x="-7.03" y="14" dominant-baseline="ideographic">1</tspan></text></g></g></g><g id="g-root-tx_1_94088bhkq32n-stroke" data-item-order="0" transform="translate(396.125, 140)"></g><g id="g-root-tx_adversar_1hgynx7g6xpfz-fill" data-item-order="0" transform="translate(217.671875, 146)"><g id="tx_adversar_1hgynx7g6xpfz-fill-merged" stroke="none" fill="#484848" fill-opacity="1"><g><text style="font: 11.3px Roboto, sans-serif; white-space: pre;" transform="translate(101.484375, 17)" font-size="11.3px" font-family="Roboto, sans-serif"><tspan x="-89.48" y="6" dominant-baseline="ideographic">Adversarial Plane</tspan></text></g></g></g><g id="g-root-tx_adversar_1hgynx7g6xpfz-stroke" data-item-order="0" transform="translate(217.671875, 146)"></g><g id="g-root-tx_5_4ikgbvhkubrj-fill" data-item-order="0" transform="translate(396.125, 614)"><g id="tx_5_4ikgbvhkubrj-fill-merged" stroke="none" fill="#484848" fill-opacity="1"><g><text style="font: 25px Roboto, sans-serif; white-space: pre;" transform="translate(19.03125, 25)" font-size="25px" font-family="Roboto, sans-serif"><tspan x="-7.03" y="14" dominant-baseline="ideographic">5</tspan></text></g></g></g><g id="g-root-tx_5_4ikgbvhkubrj-stroke" data-item-order="0" transform="translate(396.125, 614)"></g><g id="g-root-tx_attackin_qpobkrg6xq15-fill" data-item-order="0" transform="translate(561.15625, 128)"><g id="tx_attackin_qpobkrg6xq15-fill-merged" stroke="none" fill="#484848" fill-opacity="1"><g><text style="font: 15px Roboto, sans-serif; white-space: pre;" transform="translate(10, 19)" font-size="15px" font-family="Roboto, sans-serif"><tspan x="2" y="9" dominant-baseline="ideographic">Attack Initiation</tspan></text></g></g></g><g id="g-root-tx_attackin_qpobkrg6xq15-stroke" data-item-order="0" transform="translate(561.15625, 128)"></g><g id="g-root-ic_bus_m9utgbg6xqte-fill" data-item-order="0" transform="translate(501.15625, 128)"></g><g id="g-root-ic_bus_m9utgbg6xqte-stroke" data-item-order="0" transform="translate(501.15625, 128)"><g id="ic_bus_m9utgbg6xqte-stroke" fill="none" stroke-linecap="round" stroke-linejoin="round" stroke-miterlimit="4" stroke="#484848" stroke-width="1" stroke-opacity="1"><g><path d="M 53 51L 53 31C 53 29.89543 52.104568 29 51 29L 49 29M 23 51L 23 35M 35 51C 35 52.656857 36.343147 54 38 54C 39.656853 54 41 52.656857 41 51L 57 51L 57 53C 57 55.209141 55.209141 57 53 57L 23 57C 20.790861 57 19 55.209141 19 53L 19 51ZM 38 44L 38 47M 34 47L 34 43.248001C 31.537663 42.152081 29.964613 39.694977 30 37C 30 32.581722 33.581722 29 38 29C 42.418278 29 46 32.581722 46 37C 46.035641 39.694557 44.462379 42.151199 42 43.245998L 42 47M 40 36.5C 40 36.776142 40.223858 37 40.5 37C 40.776142 37 41 36.776142 41 36.5C 41 36.223858 40.776142 36 40.5 36C 40.223858 36 40 36.223858 40 36.5M 35 36.5C 35 36.776142 35.223858 37 35.5 37C 35.776142 37 36 36.776142 36 36.5C 36 36.223858 35.776142 36 35.5 36C 35.223858 36 35 36.223858 35 36.5M 17 11L 27 11C 27 11 29 11 29 13L 29 25C 29 25 29 27 27 27L 17 27C 17 27 15 27 15 25L 15 13C 15 13 15 11 17 11M 17 27L 17 29M 27 27L 27 29M 18 22.5C 18.276142 22.5 18.5 22.723858 18.5 23M 17.5 23C 17.5 22.723858 17.723858 22.5 18 22.5M 18 23.5C 17.723858 23.5 17.5 23.276142 17.5 23M 18.5 23C 18.5 23.276142 18.276142 23.5 18 23.5M 26 22.5C 26.276142 22.5 26.5 22.723858 26.5 23M 25.5 23C 25.5 22.723858 25.723858 22.5 26 22.5M 26 23.5C 25.723858 23.5 25.5 23.276142 25.5 23M 26.5 23C 26.5 23.276142 26.276142 23.5 26 23.5M 15 19L 29 19M 11 13L 11 17M 33 13L 33 17"></path></g></g></g><g id="g-root-tx_brbngfws_1upasuzg6tgxv-fill" data-item-order="0" transform="translate(203.5546875, 38)"><g id="tx_brbngfws_1upasuzg6tgxv-fill-merged" stroke="none" fill="#484848" fill-opacity="1"><g><text style="font: bold 25px Roboto, sans-serif; white-space: pre;" transform="translate(223.6015625, 25)" font-weight="bold" font-size="25px" font-family="Roboto, sans-serif"><tspan x="-211.6" y="14" dominant-baseline="ideographic">BRB-NGFW System Architecture Flow</tspan></text></g></g></g><g id="g-root-tx_brbngfws_1upasuzg6tgxv-stroke" data-item-order="0" transform="translate(203.5546875, 38)"></g><g id="g-root-tx_4_qunrmzhksvet-fill" data-item-order="0" transform="translate(396.125, 482)"><g id="tx_4_qunrmzhksvet-fill-merged" stroke="none" fill="#484848" fill-opacity="1"><g><text style="font: 25px Roboto, sans-serif; white-space: pre;" transform="translate(19.03125, 25)" font-size="25px" font-family="Roboto, sans-serif"><tspan x="-7.03" y="14" dominant-baseline="ideographic">4</tspan></text></g></g></g><g id="g-root-tx_4_qunrmzhksvet-stroke" data-item-order="0" transform="translate(396.125, 482)"></g></g></g><path id="wdil4vffmzx1g" d="M65.283 12.757a.35.35 0 0 0 .584.157l5.203-5.141-6.183 3.523.396 1.461zm-2.216-11.7a.35.35 0 0 0-.522.305v3.111l3.276-1.868-2.754-1.548zm3.728 2.105l-4.25 2.421v2.445l6.391-3.644-2.141-1.222zm4.708 3.303a.35.35 0 0 0 0-.609l-1.592-.9-7.365 4.199v1.782a.35.35 0 0 0 .523.305l8.435-4.777z M44.542 2.513c0-.433.355-.783.792-.783s.792.35.792.783-.355.783-.792.783-.792-.35-.792-.783zm59.171 0c0-.433.355-.783.792-.783s.792.35.792.783-.355.783-.792.783-.792-.35-.792-.783zm-85.951 7.636h-1.27v-.487c-.276.201-.864.609-1.881.609-1.202 0-2.274-.794-2.137-2.078.118-1.106 1.153-1.584 1.848-1.727l2.17-.345c0-.539-.29-.956-1.064-1.006s-1.21.305-1.571 1.017l-1.124-.605c1.218-2.631 5.029-1.764 5.029.414v4.207zm-1.27-2.86c.006.396-.062 1.112-.819 1.59-.587.37-1.841.299-1.903-.395-.049-.555.461-.791.906-.898l1.816-.297zm72.662 2.86h-1.27v-.487c-.276.201-.864.609-1.881.609-1.202 0-2.274-.794-2.137-2.078.118-1.106 1.153-1.584 1.848-1.727l2.17-.345c0-.539-.29-.956-1.064-1.006s-1.21.305-1.571 1.017l-1.124-.605c1.218-2.631 5.029-1.764 5.029.414v4.207zm-1.27-2.86c.006.396-.062 1.112-.82 1.59-.587.37-1.841.299-1.903-.395-.049-.555.461-.791.906-.898l1.816-.297zM99.096 10.149H97.85v-8.45h1.246v4.895l2.68-2.559h1.738l-2.633 2.535 2.715 3.578h-1.556l-2.077-2.707-.867.844v1.863zm6.053-6.114h-1.255v6.113h1.255V4.035zm-59.2 0h-1.255v6.113h1.255V4.035zm5.584 6.113V1.697h1.255v2.695c.361-.346 1-.485 1.47-.485 1.452 0 2.477 1.082 2.457 2.448v3.792h-1.27v-3.68c0-.408-.214-1.339-1.315-1.339-.968 0-1.342.756-1.342 1.339v3.681h-1.255zm-4.76-4.894V4.039h.621a.45.45 0 0 0 .45-.45v-.855h1.251v1.305h1.309v1.215h-1.309v3.109c0 .293.105.664.648.664.365 0 .531-.035.736-.07v1.137s-.361.113-.857.113c-1.398 0-1.777-1.051-1.777-1.788V5.254h-1.071zM36.528 4.039h-1.394l2.191 6.106h1.125l1.234-3.918 1.238 3.918h1.129l2.188-6.106h-1.383l-1.359 3.93-1.256-3.93h-1.124l-1.242 3.957-1.348-3.957zM26.212 7.141c-.02 1.566 1.187 3.129 3.223 3.129 1.566 0 2.383-.918 2.734-1.719L31.172 8c-.315.399-.801 1.094-1.738 1.094-1.145 0-1.825-.781-1.891-1.52h4.625c.074-.284.148-.995-.03-1.559-.336-1.064-1.221-2.102-2.839-2.102s-3.088 1.152-3.088 3.227zm1.363-.75h3.348c-.055-.43-.566-1.301-1.623-1.301a1.79 1.79 0 0 0-1.725 1.301zm-8.758.75c.038 1.758 1.277 3.133 3.145 3.133 1.074 0 1.723-.477 1.961-.672v.547h1.242V1.703h-1.258v2.888c-.414-.36-1.062-.68-1.93-.68-1.91 0-3.198 1.473-3.16 3.23zm1.309-.08c0 1.119.723 1.978 1.836 1.978a1.88 1.88 0 0 0 1.94-1.904c0-1.371-1.011-1.99-1.972-1.99s-1.805.798-1.805 1.916zm76.683-.028C96.771 5.275 95.532 3.9 93.664 3.9c-1.074 0-1.723.477-1.961.672v-.547h-1.242v8.22h1.258V9.583c.414.36 1.063.68 1.93.68 1.91 0 3.198-1.473 3.16-3.23zm-1.309.08c0-1.119-.723-1.978-1.836-1.978a1.88 1.88 0 0 0-1.94 1.904c0 1.371 1.011 1.99 1.972 1.99S95.5 8.231 95.5 7.113zM106.441 10.173V4.036h1.254v.382c.361-.346 1-.485 1.47-.485 1.452 0 2.477 1.082 2.457 2.448v3.792h-1.27V6.492c0-.408-.214-1.339-1.315-1.339-.969 0-1.342.756-1.342 1.339v3.681h-1.254zm-30.383-.021V1.824h1.084l4.215 5.777V1.824h1.32v8.328h-1.094l-4.207-5.796v5.796h-1.319zM5.24 10.149H4V2.377h1.014l2.664 3.597 2.654-3.592h1.03v7.766h-1.256V4.762L7.678 8.068 5.24 4.742v5.407z" transform="translate(20, 710)" fill="#80808088" stroke="none"></path></svg>