<?xml version="1.0" encoding="utf-8" standalone="yes"?>
<!DOCTYPE svg PUBLIC "-//W3C//DTD SVG 1.1//EN" "http://www.w3.org/Graphics/SVG/1.1/DTD/svg11.dtd">
<svg style="fill:none;stroke:none;fill-rule:evenodd;clip-rule:evenodd;stroke-linecap:round;stroke-linejoin:round;stroke-miterlimit:1.5;" version="1.1" xmlns="http://www.w3.org/2000/svg" xmlns:xlink="http://www.w3.org/1999/xlink" width="872" height="428" viewBox="0 0 872 428"><style class="text-font-style fontImports" data-font-family="Roboto">@import url(https://fonts.googleapis.com/css2?family=Roboto:wght@400;700&amp;amp;display=block);</style><rect id="" x="0" y="0" width="871.078" height="428" style="fill: #ffffff;"></rect><g id="items" style="isolation: isolate"><g id="blend" style="mix-blend-mode: normal"><g id="g-root-cp_1_lines-1_dgoquzesrbbb-fill" data-item-order="-275233" transform="translate(17.015625, 211)"></g><g id="g-root-cp_1_lines-1_dgoquzesrbbb-stroke" data-item-order="-275233" transform="translate(17.015625, 211)"><g id="cp_1_lines-1_dgoquzesrbbb-stroke" fill="none" stroke-linecap="round" stroke-linejoin="round" stroke-miterlimit="4" stroke="#1eabda" stroke-width="2" stroke-opacity="1"><g><path d="M 16 10L 14 10C 11.7909 10 10 11.7909 10 14L 10 16M 10 16L 10 36.000002M 111.21875 16L 111.21875 36.000002M 16 10L 105.21875 10M 16 42L 14 42C 11.7909 42 10 40.2091 10 38L 10 36M 105.21875 10L 107.21875 10C 109.42785 10 111.21875 11.7909 111.21875 14L 111.21875 16M 105.21875 42L 16 42M 105.21875 42L 107.21875 42C 109.42785 42 111.21875 40.2091 111.21875 38L 111.21875 36"></path></g></g></g><g id="g-root-cp_2_lines-2_90v8qjesrc3k-fill" data-item-order="-275177" transform="translate(190.234375, 202.5)"></g><g id="g-root-cp_2_lines-2_90v8qjesrc3k-stroke" data-item-order="-275177" transform="translate(190.234375, 202.5)"><g id="cp_2_lines-2_90v8qjesrc3k-stroke" fill="none" stroke-linecap="round" stroke-linejoin="round" stroke-miterlimit="4" stroke="#3cc583" stroke-width="2" stroke-opacity="1"><g><path d="M 10.000278 18.000337C 9.999722 28.827637 10.000093 40.534824 10.000278 51M 132.359375 51C 132.359375 40.534824 132.359375 30.22138 132.359375 18"></path></g></g><g id="cp_2_lines-2_90v8qjesrc3k-stroke" fill="none" stroke-linecap="round" stroke-linejoin="round" stroke-miterlimit="4" stroke="#3cc583" stroke-width="2" stroke-opacity="1"><g><path d="M 132.359375 18C 132.359375 13.5817 104.9683 10 71.179688 10C 37.391073 10 10 13.5817 10 18M 132.359375 18.000001C 132.359375 22.4183 104.9683 26 71.179688 26C 37.391073 26 10 22.4183 10 18M 132.359375 51C 132.359375 55.418301 104.9683 59 71.179688 59C 37.391073 59 10 55.418301 10 51"></path></g></g></g><g id="g-root-cp_3_lines-3_588hnesrcw9-fill" data-item-order="-275127" transform="translate(384.59375, 149)"></g><g id="g-root-cp_3_lines-3_588hnesrcw9-stroke" data-item-order="-275127" transform="translate(384.59375, 149)"><g id="cp_3_lines-3_588hnesrcw9-stroke" fill="none" stroke-linecap="round" stroke-linejoin="round" stroke-miterlimit="4" stroke="#1eabda" stroke-width="2" stroke-opacity="1"><g><path d="M 25 10L 24 10C 15.7157 10 10 19.40205 10 31C 10 42.59795 15.7157 52 24 52L 25 52"></path></g></g><g id="cp_3_lines-3_588hnesrcw9-stroke" fill="none" stroke-linecap="round" stroke-linejoin="round" stroke-miterlimit="4" stroke="#1eabda" stroke-width="2" stroke-opacity="1"><g><path d="M 51.964844 52.000175L 64.963547 52.000175C 66.466248 52.000175 67.468048 50.6875 65.999542 49.375C 62.488045 46.575699 58.964844 41.095924 58.964844 31.000175C 58.964844 20.9361 62.465942 15.459125 65.966446 12.651862C 67.466446 11.448825 66.466339 10 64.966339 10L 51.964844 10.000175M 25 10L 51.96875 10M 51.96875 52L 25 52"></path></g></g></g><g id="g-root-cp_4_lines-4_1ur59ffesrabm-fill" data-item-order="-275085" transform="translate(384.59375, 259)"></g><g id="g-root-cp_4_lines-4_1ur59ffesrabm-stroke" data-item-order="-275085" transform="translate(384.59375, 259)"><g id="cp_4_lines-4_1ur59ffesrabm-stroke" fill="none" stroke-linecap="round" stroke-linejoin="round" stroke-miterlimit="4" stroke="#1eabda" stroke-width="2" stroke-opacity="1"><g><path d="M 25 10L 24 10C 15.7157 10 10 19.40205 10 31C 10 42.59795 15.7157 52 24 52L 25 52"></path></g></g><g id="cp_4_lines-4_1ur59ffesrabm-stroke" fill="none" stroke-linecap="round" stroke-linejoin="round" stroke-miterlimit="4" stroke="#1eabda" stroke-width="2" stroke-opacity="1"><g><path d="M 58.730469 52.000175L 71.729172 52.000175C 73.231873 52.000175 74.233673 50.6875 72.765167 49.375C 69.25367 46.575699 65.730469 41.095924 65.730469 31.000175C 65.730469 20.9361 69.231567 15.459125 72.732071 12.651862C 74.232071 11.448825 73.231964 10 71.731964 10L 58.730469 10.000175M 25 10L 58.734375 10M 58.734375 52L 25 52"></path></g></g></g><g id="g-root-cp_5_lines-5_1ur59ffesrabn-fill" data-item-order="-275043" transform="translate(520.328125, 180)"></g><g id="g-root-cp_5_lines-5_1ur59ffesrabn-stroke" data-item-order="-275043" transform="translate(520.328125, 180)"><g id="cp_5_lines-5_1ur59ffesrabn-stroke" fill="none" stroke-linecap="round" stroke-linejoin="round" stroke-miterlimit="4" stroke="#1eabda" stroke-width="2" stroke-opacity="1"><g><path d="M 16 10L 14 10C 11.7909 10 10 11.7909 10 14L 10 16M 10 16L 10 50M 115.1875 16L 115.1875 50M 16 10L 109.1875 10M 16 56L 14 56C 11.7909 56 10 54.2091 10 52L 10 50M 109.1875 10L 111.1875 10C 113.3966 10 115.1875 11.7909 115.1875 14L 115.1875 16M 109.1875 56L 16 56M 109.1875 56L 111.1875 56C 113.3966 56 115.1875 54.2091 115.1875 52L 115.1875 50"></path></g></g></g><g id="g-root-cp_6_lines-6_1lvi96jesrb4c-fill" data-item-order="-274987" transform="translate(520.328125, 264)"></g><g id="g-root-cp_6_lines-6_1lvi96jesrb4c-stroke" data-item-order="-274987" transform="translate(520.328125, 264)"><g id="cp_6_lines-6_1lvi96jesrb4c-stroke" fill="none" stroke-linecap="round" stroke-linejoin="round" stroke-miterlimit="4" stroke="#1eabda" stroke-width="2" stroke-opacity="1"><g><path d="M 16 10L 14 10C 11.7909 10 10 11.7909 10 14L 10 16M 10 16L 10 36.000002M 139.5 16L 139.5 36.000002M 16 10L 133.5 10M 16 42L 14 42C 11.7909 42 10 40.2091 10 38L 10 36M 133.5 10L 135.5 10C 137.7091 10 139.5 11.7909 139.5 14L 139.5 16M 133.5 42L 16 42M 133.5 42L 135.5 42C 137.7091 42 139.5 40.2091 139.5 38L 139.5 36"></path></g></g></g><g id="g-root-cp_7_lines-7_1hfor23esrbwl-fill" data-item-order="-274931" transform="translate(520.328125, 128)"></g><g id="g-root-cp_7_lines-7_1hfor23esrbwl-stroke" data-item-order="-274931" transform="translate(520.328125, 128)"><g id="cp_7_lines-7_1hfor23esrbwl-stroke" fill="none" stroke-linecap="round" stroke-linejoin="round" stroke-miterlimit="4" stroke="#1eabda" stroke-width="2" stroke-opacity="1"><g><path d="M 16 10L 14 10C 11.7909 10 10 11.7909 10 14L 10 16M 10 16L 10 36.000002M 109 16L 109 36.000002M 16 10L 103 10M 16 42L 14 42C 11.7909 42 10 40.2091 10 38L 10 36M 103 10L 105 10C 107.2091 10 109 11.7909 109 14L 109 16M 103 42L 16 42M 103 42L 105 42C 107.2091 42 109 40.2091 109 38L 109 36"></path></g></g></g><g id="g-root-cp_8_lines-8_1hfor23esrbwm-fill" data-item-order="-274881" transform="translate(721.828125, 135)"></g><g id="g-root-cp_8_lines-8_1hfor23esrbwm-stroke" data-item-order="-274881" transform="translate(721.828125, 135)"><g id="cp_8_lines-8_1hfor23esrbwm-stroke" fill="none" stroke-linecap="round" stroke-linejoin="round" stroke-miterlimit="4" stroke="#1eabda" stroke-width="2" stroke-opacity="1"><g><path d="M 16 10L 14 10C 11.7909 10 10 11.7909 10 14L 10 16M 10 16L 10 36.000002M 73.75 16L 73.75 36.000002M 16 10L 67.75 10M 16 42L 14 42C 11.7909 42 10 40.2091 10 38L 10 36M 67.75 10L 69.75 10C 71.9591 10 73.75 11.7909 73.75 14L 73.75 16M 67.75 42L 16 42M 67.75 42L 69.75 42C 71.9591 42 73.75 40.2091 73.75 38L 73.75 36"></path></g></g></g><g id="g-root-cp_9_lines-9_18k1qt7esrcpb-fill" data-item-order="-274831" transform="translate(721.828125, 187)"></g><g id="g-root-cp_9_lines-9_18k1qt7esrcpb-stroke" data-item-order="-274831" transform="translate(721.828125, 187)"><g id="cp_9_lines-9_18k1qt7esrcpb-stroke" fill="none" stroke-linecap="round" stroke-linejoin="round" stroke-miterlimit="4" stroke="#1eabda" stroke-width="2" stroke-opacity="1"><g><path d="M 16 10L 14 10C 11.7909 10 10 11.7909 10 14L 10 16M 10 16L 10 36.000002M 88.015625 16L 88.015625 36.000002M 16 10L 82.015625 10M 16 42L 14 42C 11.7909 42 10 40.2091 10 38L 10 36M 82.015625 10L 84.015625 10C 86.224725 10 88.015625 11.7909 88.015625 14L 88.015625 16M 82.015625 42L 16 42M 82.015625 42L 84.015625 42C 86.224725 42 88.015625 40.2091 88.015625 38L 88.015625 36"></path></g></g></g><g id="g-root-cp_10_lines-10_1czv8xnesrcow-fill" data-item-order="-274781" transform="translate(721.828125, 239)"></g><g id="g-root-cp_10_lines-10_1czv8xnesrcow-stroke" data-item-order="-274781" transform="translate(721.828125, 239)"><g id="cp_10_lines-10_1czv8xnesrcow-stroke" fill="none" stroke-linecap="round" stroke-linejoin="round" stroke-miterlimit="4" stroke="#1eabda" stroke-width="2" stroke-opacity="1"><g><path d="M 16 10L 14 10C 11.7909 10 10 11.7909 10 14L 10 16M 10 16L 10 50M 122.234375 16L 122.234375 50M 16 10L 116.234375 10M 16 56L 14 56C 11.7909 56 10 54.2091 10 52L 10 50M 116.234375 10L 118.234375 10C 120.443475 10 122.234375 11.7909 122.234375 14L 122.234375 16M 116.234375 56L 16 56M 116.234375 56L 118.234375 56C 120.443475 56 122.234375 54.2091 122.234375 52L 122.234375 50"></path></g></g></g><g id="g-root-he_144uprvesrabu-fill" data-item-order="-274731" transform="translate(118.234375, 227)"></g><g id="g-root-he_144uprvesrabu-stroke" data-item-order="-274731" transform="translate(118.234375, 227)"><g id="he_144uprvesrabu-stroke" fill="none" stroke-linecap="round" stroke-linejoin="round" stroke-miterlimit="4" stroke="#484848" stroke-width="2" stroke-opacity="1"><g><path d="M 10 10L 80 10"></path><path d="M 74 16.5L 80.5 10L 74 3.5" stroke-dasharray="none"></path></g></g></g><g id="g-root-he_144uprvesrabw-fill" data-item-order="-274729" transform="translate(312.59375, 170)"></g><g id="g-root-he_144uprvesrabw-stroke" data-item-order="-274729" transform="translate(312.59375, 170)"><g id="he_144uprvesrabw-stroke" fill="none" stroke-linecap="round" stroke-linejoin="round" stroke-miterlimit="4" stroke="#484848" stroke-width="2" stroke-opacity="1"><g><path d="M 10 67L 34 67C 40.63 67 46 61.63 46 55L 46 22C 46 15.37 51.37 10 58 10L 80 10"></path><path d="M 74 16.5L 80.5 10L 74 3.5" stroke-dasharray="none"></path></g></g></g><g id="g-root-he_144uprvesraby-fill" data-item-order="-274727" transform="translate(312.59375, 227)"></g><g id="g-root-he_144uprvesraby-stroke" data-item-order="-274727" transform="translate(312.59375, 227)"><g id="he_144uprvesraby-stroke" fill="none" stroke-linecap="round" stroke-linejoin="round" stroke-miterlimit="4" stroke="#484848" stroke-width="2" stroke-opacity="1"><g><path d="M 10 10L 34 10C 40.63 10 46 15.37 46 22L 46 51C 46 57.63 51.37 63 58 63L 80 63"></path><path d="M 74 69.5L 80.5 63L 74 56.5" stroke-dasharray="none"></path></g></g></g><g id="g-root-he_18ko7wbesrabk-fill" data-item-order="-274725" transform="translate(441.5625, 170)"></g><g id="g-root-he_18ko7wbesrabk-stroke" data-item-order="-274725" transform="translate(441.5625, 170)"><g id="he_18ko7wbesrabk-stroke" fill="none" stroke-linecap="round" stroke-linejoin="round" stroke-miterlimit="4" stroke="#484848" stroke-width="2" stroke-opacity="1"><g><path d="M 10 10L 40.77 10C 47.39 10 52.77 15.37 52.77 22L 52.77 31C 52.77 37.63 58.14 43 64.77 43L 86.77 43"></path><path d="M 80.8 49.5L 87.3 43L 80.8 36.5" stroke-dasharray="none"></path></g></g></g><g id="g-root-he_zp17nfesrb4a-fill" data-item-order="-274723" transform="translate(448.328125, 280)"></g><g id="g-root-he_zp17nfesrb4a-stroke" data-item-order="-274723" transform="translate(448.328125, 280)"><g id="he_zp17nfesrb4a-stroke" fill="none" stroke-linecap="round" stroke-linejoin="round" stroke-miterlimit="4" stroke="#484848" stroke-width="2" stroke-opacity="1"><g><path d="M 10 10L 80 10"></path><path d="M 74 16.5L 80.5 10L 74 3.5" stroke-dasharray="none"></path></g></g></g><g id="g-root-he_zp17nfesrb4c-fill" data-item-order="-274721" transform="translate(441.5625, 144)"></g><g id="g-root-he_zp17nfesrb4c-stroke" data-item-order="-274721" transform="translate(441.5625, 144)"><g id="he_zp17nfesrb4c-stroke" fill="none" stroke-linecap="round" stroke-linejoin="round" stroke-miterlimit="4" stroke="#484848" stroke-width="2" stroke-opacity="1"><g><path d="M 10 36L 40.77 36C 47.39 36 52.77 30.63 52.77 24L 52.77 22C 52.77 15.37 58.14 10 64.77 10L 86.77 10"></path><path d="M 80.8 16.5L 87.3 10L 80.8 3.5" stroke-dasharray="none"></path></g></g></g><g id="g-root-he_zp17nfesrb4e-fill" data-item-order="-274719" transform="translate(625.515625, 151)"></g><g id="g-root-he_zp17nfesrb4e-stroke" data-item-order="-274719" transform="translate(625.515625, 151)"><g id="he_zp17nfesrb4e-stroke" fill="none" stroke-linecap="round" stroke-linejoin="round" stroke-miterlimit="4" stroke="#484848" stroke-width="2" stroke-opacity="1"><g><path d="M 10 62L 58.31 62C 64.94 62 70.31 56.63 70.31 50L 70.31 22C 70.31 15.37 75.69 10 82.31 10L 104.31 10"></path><path d="M 98.3 16.5L 104.8 10L 98.3 3.5" stroke-dasharray="none"></path></g></g></g><g id="g-root-he_144uprvesrb40-fill" data-item-order="-274717" transform="translate(625.515625, 203)"></g><g id="g-root-he_144uprvesrb40-stroke" data-item-order="-274717" transform="translate(625.515625, 203)"><g id="he_144uprvesrb40-stroke" fill="none" stroke-linecap="round" stroke-linejoin="round" stroke-miterlimit="4" stroke="#484848" stroke-width="2" stroke-opacity="1"><g><path d="M 10 10L 104.31 10"></path><path d="M 98.3 16.5L 104.8 10L 98.3 3.5" stroke-dasharray="none"></path></g></g></g><g id="g-root-he_144uprvesrb42-fill" data-item-order="-274715" transform="translate(625.515625, 203)"></g><g id="g-root-he_144uprvesrb42-stroke" data-item-order="-274715" transform="translate(625.515625, 203)"><g id="he_144uprvesrb42-stroke" fill="none" stroke-linecap="round" stroke-linejoin="round" stroke-miterlimit="4" stroke="#484848" stroke-width="2" stroke-opacity="1"><g><path d="M 10 10L 58.31 10C 64.94 10 70.31 15.37 70.31 22L 70.31 57C 70.31 63.63 75.69 69 82.31 69L 104.31 69"></path><path d="M 98.3 75.5L 104.8 69L 98.3 62.5" stroke-dasharray="none"></path></g></g></g><g id="g-root-he_v97pizesrbws-fill" data-item-order="-274713" transform="translate(154.234375, 227)"></g><g id="g-root-he_v97pizesrbws-stroke" data-item-order="-274713" transform="translate(154.234375, 227)"><g id="he_v97pizesrbws-stroke" fill="none" stroke-linecap="round" stroke-linejoin="round" stroke-miterlimit="4" stroke="#484848" stroke-width="2" stroke-opacity="1"><g><path d="M 505.59 63L 529.59 63C 536.22 63 541.59 68.37 541.59 75L 541.59 104C 541.59 110.63 536.22 116 529.59 116L 22 116C 15.37 116 10 110.63 10 104L 10 22C 10 15.37 15.37 10 22 10L 44 10"></path><path d="M 38 16.5L 44.5 10L 38 3.5" stroke-dasharray="none"></path></g></g></g><g id="g-root-he_v97pizesrbwu-fill" data-item-order="-274711" transform="translate(312.59375, 203)"></g><g id="g-root-he_v97pizesrbwu-stroke" data-item-order="-274711" transform="translate(312.59375, 203)"><g id="he_v97pizesrbwu-stroke" fill="none" stroke-linecap="round" stroke-linejoin="round" stroke-miterlimit="4" stroke="#484848" stroke-width="2" stroke-opacity="1"><g><path d="M 10 34L 169.73 34C 176.36 34 181.73 28.63 181.73 22L 181.73 22C 181.73 15.37 187.11 10 193.73 10L 215.73 10"></path><path d="M 209.7 16.5L 216.2 10L 209.7 3.5" stroke-dasharray="none"></path></g></g></g><g id="g-root-he_zp17nfesrbwg-fill" data-item-order="-274709" transform="translate(154.234375, 203)"></g><g id="g-root-he_zp17nfesrbwg-stroke" data-item-order="-274709" transform="translate(154.234375, 203)"><g id="he_zp17nfesrbwg-stroke" fill="none" stroke-linecap="round" stroke-linejoin="round" stroke-miterlimit="4" stroke="#484848" stroke-width="2" stroke-opacity="1"><g><path d="M 481.28 10L 505.28 10C 511.91 10 517.28 15.37 517.28 22L 517.28 128C 517.28 134.63 511.91 140 505.28 140L 22 140C 15.37 140 10 134.63 10 128L 10 46C 10 39.37 15.37 34 22 34L 44 34"></path><path d="M 38 40.5L 44.5 34L 38 27.5" stroke-dasharray="none"></path></g></g></g><g id="g-root-tx_laninter_hrigajessq2t-fill" data-item-order="0" transform="translate(329.95001220703125, 133)"><g id="tx_laninter_hrigajessq2t-fill-merged" stroke="none" fill="#484848" fill-opacity="1"><g><text style="font: 12px Roboto, sans-serif; white-space: pre;" transform="translate(35.84375, 24)" font-size="12px" font-family="Roboto, sans-serif"><tspan x="-11.48" y="0" dominant-baseline="ideographic">LAN </tspan><tspan x="-23.84" y="14" dominant-baseline="ideographic">Interface</tspan></text></g></g></g><g id="g-root-tx_laninter_hrigajessq2t-stroke" data-item-order="0" transform="translate(329.95001220703125, 133)"></g><g id="g-root-tx_ubuntuco_8zmakbessow2-fill" data-item-order="0" transform="translate(529.328125, 189)"><g id="tx_ubuntuco_8zmakbessow2-fill-merged" stroke="none" fill="#1eabda" fill-opacity="1"><g><text style="font: 12px Roboto, sans-serif; white-space: pre;" transform="translate(53.59375, 24)" font-size="12px" font-family="Roboto, sans-serif"><tspan x="-41.59" y="0" dominant-baseline="ideographic">Ubuntu Control </tspan><tspan x="-15.77" y="14" dominant-baseline="ideographic">Node</tspan></text></g></g></g><g id="g-root-tx_ubuntuco_8zmakbessow2-stroke" data-item-order="0" transform="translate(529.328125, 189)"></g><g id="g-root-tx_victimsy_mdkpa3essqvi-fill" data-item-order="0" transform="translate(529.328125, 137)"><g id="tx_victimsy_mdkpa3essqvi-fill-merged" stroke="none" fill="#1eabda" fill-opacity="1"><g><text style="font: 12px Roboto, sans-serif; white-space: pre;" transform="translate(50.5, 17)" font-size="12px" font-family="Roboto, sans-serif"><tspan x="-38.5" y="7" dominant-baseline="ideographic">Victim System</tspan></text></g></g></g><g id="g-root-tx_victimsy_mdkpa3essqvi-stroke" data-item-order="0" transform="translate(529.328125, 137)"></g><g id="g-root-tx_mlengine_zqa5tnessrgo-fill" data-item-order="0" transform="translate(730.828125, 196)"><g id="tx_mlengine_zqa5tnessrgo-fill-merged" stroke="none" fill="#1eabda" fill-opacity="1"><g><text style="font: 12px Roboto, sans-serif; white-space: pre;" transform="translate(40.0078125, 17)" font-size="12px" font-family="Roboto, sans-serif"><tspan x="-28.01" y="7" dominant-baseline="ideographic">ML Engine</tspan></text></g></g></g><g id="g-root-tx_mlengine_zqa5tnessrgo-stroke" data-item-order="0" transform="translate(730.828125, 196)"></g><g id="g-root-tx_waninter_1lxdofvesrax6-fill" data-item-order="0" transform="translate(26.015625, 220)"><g id="tx_waninter_1lxdofvesrax6-fill-merged" stroke="none" fill="#1eabda" fill-opacity="1"><g><text style="font: 12px Roboto, sans-serif; white-space: pre;" transform="translate(51.609375, 17)" font-size="12px" font-family="Roboto, sans-serif"><tspan x="-39.61" y="7" dominant-baseline="ideographic">WAN (Internet)</tspan></text></g></g></g><g id="g-root-tx_waninter_1lxdofvesrax6-stroke" data-item-order="0" transform="translate(26.015625, 220)"></g><g id="g-root-tx_fastapi_1qckph7essrgn-fill" data-item-order="0" transform="translate(730.828125, 144)"><g id="tx_fastapi_1qckph7essrgn-fill-merged" stroke="none" fill="#1eabda" fill-opacity="1"><g><text style="font: 12px Roboto, sans-serif; white-space: pre;" transform="translate(32.875, 17)" font-size="12px" font-family="Roboto, sans-serif"><tspan x="-20.88" y="7" dominant-baseline="ideographic">FastAPI</tspan></text></g></g></g><g id="g-root-tx_fastapi_1qckph7essrgn-stroke" data-item-order="0" transform="translate(730.828125, 144)"></g><g id="g-root-tx_waninter_hzmmezesrci3-fill" data-item-order="0" transform="translate(121.19061279296875, 190)"><g id="tx_waninter_hzmmezesrci3-fill-merged" stroke="none" fill="#484848" fill-opacity="1"><g><text style="font: 12px Roboto, sans-serif; white-space: pre;" transform="translate(35.84375, 24)" font-size="12px" font-family="Roboto, sans-serif"><tspan x="-13.41" y="0" dominant-baseline="ideographic">WAN </tspan><tspan x="-23.84" y="14" dominant-baseline="ideographic">Interface</tspan></text></g></g></g><g id="g-root-tx_waninter_hzmmezesrci3-stroke" data-item-order="0" transform="translate(121.19061279296875, 190)"></g><g id="g-root-tx_opnsense_1lymmm3esrd38-fill" data-item-order="0" transform="translate(199.234375, 226.5)"><g id="tx_opnsense_1lymmm3esrd38-fill-merged" stroke="none" fill="#3cc583" fill-opacity="1"><g><text style="font: 12px Roboto, sans-serif; white-space: pre;" transform="translate(62.1796875, 17)" font-size="12px" font-family="Roboto, sans-serif"><tspan x="-50.18" y="7" dominant-baseline="ideographic">OPNsense Firewall</tspan></text></g></g></g><g id="g-root-tx_opnsense_1lymmm3esrd38-stroke" data-item-order="0" transform="translate(199.234375, 226.5)"></g><g id="g-root-tx_apicontr_18issmzessphn-fill" data-item-order="0" transform="translate(595.7578125, 342)"><g id="tx_apicontr_18issmzessphn-fill-merged" stroke="none" fill="#484848" fill-opacity="1"><g><text style="font: 12px Roboto, sans-serif; white-space: pre;" transform="translate(31.4609375, 24)" font-size="12px" font-family="Roboto, sans-serif"><tspan x="-9.34" y="0" dominant-baseline="ideographic">API </tspan><tspan x="-19.46" y="14" dominant-baseline="ideographic">Control</tspan></text></g></g></g><g id="g-root-tx_apicontr_18issmzessphn-stroke" data-item-order="0" transform="translate(595.7578125, 342)"></g><g id="g-root-tx_logicall_zp17nfesrbwh-fill" data-item-order="0" transform="translate(192.4765625, 38)"><g id="tx_logicall_zp17nfesrbwh-fill-merged" stroke="none" fill="#484848" fill-opacity="1"><g><text style="font: bold 25px Roboto, sans-serif; white-space: pre;" transform="translate(243.0625, 40)" font-weight="bold" font-size="25px" font-family="Roboto, sans-serif"><tspan x="-231.06" y="-1" dominant-baseline="ideographic">Logical Lab Topology of BRB-NGFW Test </tspan><tspan x="-74.06" y="29" dominant-baseline="ideographic">Environment</tspan></text></g></g></g><g id="g-root-tx_logicall_zp17nfesrbwh-stroke" data-item-order="0" transform="translate(192.4765625, 38)"></g><g id="g-root-tx_grafanal_4osl4ressp35-fill" data-item-order="0" transform="translate(730.828125, 248)"><g id="tx_grafanal_4osl4ressp35-fill-merged" stroke="none" fill="#1eabda" fill-opacity="1"><g><text style="font: 12px Roboto, sans-serif; white-space: pre;" transform="translate(57.1171875, 24)" font-size="12px" font-family="Roboto, sans-serif"><tspan x="-45.12" y="0" dominant-baseline="ideographic">Grafana + Loki + </tspan><tspan x="-24.09" y="14" dominant-baseline="ideographic">Promtail</tspan></text></g></g></g><g id="g-root-tx_grafanal_4osl4ressp35-stroke" data-item-order="0" transform="translate(730.828125, 248)"></g><g id="g-root-tx_opt1_1413v97essr9l-fill" data-item-order="0" transform="translate(399.59375, 273)"><g id="tx_opt1_1413v97essr9l-fill-merged" stroke="none" fill="#969696" fill-opacity="1"><g><text style="font: 12px Roboto, sans-serif; white-space: pre;" transform="translate(26.8671875, 17)" font-size="12px" font-family="Roboto, sans-serif"><tspan x="-14.87" y="7" dominant-baseline="ideographic">OPT1</tspan></text></g></g></g><g id="g-root-tx_opt1_1413v97essr9l-stroke" data-item-order="0" transform="translate(399.59375, 273)"></g><g id="g-root-tx_lan_4hxd6jessqo0-fill" data-item-order="0" transform="translate(399.59375, 163)"><g id="tx_lan_4hxd6jessqo0-fill-merged" stroke="none" fill="#969696" fill-opacity="1"><g><text style="font: 12px Roboto, sans-serif; white-space: pre;" transform="translate(23.484375, 17)" font-size="12px" font-family="Roboto, sans-serif"><tspan x="-11.48" y="7" dominant-baseline="ideographic">LAN</tspan></text></g></g></g><g id="g-root-tx_lan_4hxd6jessqo0-stroke" data-item-order="0" transform="translate(399.59375, 163)"></g><g id="g-root-tx_kalilinu_dgoquzessq9w-fill" data-item-order="0" transform="translate(529.328125, 273)"><g id="tx_kalilinu_dgoquzessq9w-fill-merged" stroke="none" fill="#1eabda" fill-opacity="1"><g><text style="font: 12px Roboto, sans-serif; white-space: pre;" transform="translate(65.75, 17)" font-size="12px" font-family="Roboto, sans-serif"><tspan x="-53.75" y="7" dominant-baseline="ideographic">Kali Linux (Attacker)</tspan></text></g></g></g><g id="g-root-tx_kalilinu_dgoquzessq9w-stroke" data-item-order="0" transform="translate(529.328125, 273)"></g><g id="g-root-tx_opt1inte_1haoyd7essqoe-fill" data-item-order="0" transform="translate(329.95001220703125, 289)"><g id="tx_opt1inte_1haoyd7essqoe-fill-merged" stroke="none" fill="#484848" fill-opacity="1"><g><text style="font: 12px Roboto, sans-serif; white-space: pre;" transform="translate(35.84375, 24)" font-size="12px" font-family="Roboto, sans-serif"><tspan x="-14.88" y="0" dominant-baseline="ideographic">OPT1 </tspan><tspan x="-23.84" y="14" dominant-baseline="ideographic">Interface</tspan></text></g></g></g><g id="g-root-tx_opt1inte_1haoyd7essqoe-stroke" data-item-order="0" transform="translate(329.95001220703125, 289)"></g><g id="g-root-tx_trafficf_1czv8xnessqvh-fill" data-item-order="0" transform="translate(609.078125, 296)"><g id="tx_trafficf_1czv8xnessqvh-fill-merged" stroke="none" fill="#484848" fill-opacity="1"><g><text style="font: 12px Roboto, sans-serif; white-space: pre;" transform="translate(30.296875, 24)" font-size="12px" font-family="Roboto, sans-serif"><tspan x="-18.3" y="0" dominant-baseline="ideographic">Traffic </tspan><tspan x="-14.2" y="14" dominant-baseline="ideographic">Flow</tspan></text></g></g></g><g id="g-root-tx_trafficf_1czv8xnessqvh-stroke" data-item-order="0" transform="translate(609.078125, 296)"></g><g id="g-root-tx_logs_m8kwl7essrgn-fill" data-item-order="0" transform="translate(487.203125, 180)"><g id="tx_logs_m8kwl7essrgn-fill-merged" stroke="none" fill="#484848" fill-opacity="1"><g><text style="font: 12px Roboto, sans-serif; white-space: pre;" transform="translate(25.125, 17)" font-size="12px" font-family="Roboto, sans-serif"><tspan x="-13.13" y="7" dominant-baseline="ideographic">Logs</tspan></text></g></g></g><g id="g-root-tx_logs_m8kwl7essrgn-stroke" data-item-order="0" transform="translate(487.203125, 180)"></g></g></g><path id="w1urs9h7fwmw3r" d="M65.283 12.757a.35.35 0 0 0 .584.157l5.203-5.141-6.183 3.523.396 1.461zm-2.216-11.7a.35.35 0 0 0-.522.305v3.111l3.276-1.868-2.754-1.548zm3.728 2.105l-4.25 2.421v2.445l6.391-3.644-2.141-1.222zm4.708 3.303a.35.35 0 0 0 0-.609l-1.592-.9-7.365 4.199v1.782a.35.35 0 0 0 .523.305l8.435-4.777z M44.542 2.513c0-.433.355-.783.792-.783s.792.35.792.783-.355.783-.792.783-.792-.35-.792-.783zm59.171 0c0-.433.355-.783.792-.783s.792.35.792.783-.355.783-.792.783-.792-.35-.792-.783zm-85.951 7.636h-1.27v-.487c-.276.201-.864.609-1.881.609-1.202 0-2.274-.794-2.137-2.078.118-1.106 1.153-1.584 1.848-1.727l2.17-.345c0-.539-.29-.956-1.064-1.006s-1.21.305-1.571 1.017l-1.124-.605c1.218-2.631 5.029-1.764 5.029.414v4.207zm-1.27-2.86c.006.396-.062 1.112-.819 1.59-.587.37-1.841.299-1.903-.395-.049-.555.461-.791.906-.898l1.816-.297zm72.662 2.86h-1.27v-.487c-.276.201-.864.609-1.881.609-1.202 0-2.274-.794-2.137-2.078.118-1.106 1.153-1.584 1.848-1.727l2.17-.345c0-.539-.29-.956-1.064-1.006s-1.21.305-1.571 1.017l-1.124-.605c1.218-2.631 5.029-1.764 5.029.414v4.207zm-1.27-2.86c.006.396-.062 1.112-.82 1.59-.587.37-1.841.299-1.903-.395-.049-.555.461-.791.906-.898l1.816-.297zM99.096 10.149H97.85v-8.45h1.246v4.895l2.68-2.559h1.738l-2.633 2.535 2.715 3.578h-1.556l-2.077-2.707-.867.844v1.863zm6.053-6.114h-1.255v6.113h1.255V4.035zm-59.2 0h-1.255v6.113h1.255V4.035zm5.584 6.113V1.697h1.255v2.695c.361-.346 1-.485 1.47-.485 1.452 0 2.477 1.082 2.457 2.448v3.792h-1.27v-3.68c0-.408-.214-1.339-1.315-1.339-.968 0-1.342.756-1.342 1.339v3.681h-1.255zm-4.76-4.894V4.039h.621a.45.45 0 0 0 .45-.45v-.855h1.251v1.305h1.309v1.215h-1.309v3.109c0 .293.105.664.648.664.365 0 .531-.035.736-.07v1.137s-.361.113-.857.113c-1.398 0-1.777-1.051-1.777-1.788V5.254h-1.071zM36.528 4.039h-1.394l2.191 6.106h1.125l1.234-3.918 1.238 3.918h1.129l2.188-6.106h-1.383l-1.359 3.93-1.256-3.93h-1.124l-1.242 3.957-1.348-3.957zM26.212 7.141c-.02 1.566 1.187 3.129 3.223 3.129 1.566 0 2.383-.918 2.734-1.719L31.172 8c-.315.399-.801 1.094-1.738 1.094-1.145 0-1.825-.781-1.891-1.52h4.625c.074-.284.148-.995-.03-1.559-.336-1.064-1.221-2.102-2.839-2.102s-3.088 1.152-3.088 3.227zm1.363-.75h3.348c-.055-.43-.566-1.301-1.623-1.301a1.79 1.79 0 0 0-1.725 1.301zm-8.758.75c.038 1.758 1.277 3.133 3.145 3.133 1.074 0 1.723-.477 1.961-.672v.547h1.242V1.703h-1.258v2.888c-.414-.36-1.062-.68-1.93-.68-1.91 0-3.198 1.473-3.16 3.23zm1.309-.08c0 1.119.723 1.978 1.836 1.978a1.88 1.88 0 0 0 1.94-1.904c0-1.371-1.011-1.99-1.972-1.99s-1.805.798-1.805 1.916zm76.683-.028C96.771 5.275 95.532 3.9 93.664 3.9c-1.074 0-1.723.477-1.961.672v-.547h-1.242v8.22h1.258V9.583c.414.36 1.063.68 1.93.68 1.91 0 3.198-1.473 3.16-3.23zm-1.309.08c0-1.119-.723-1.978-1.836-1.978a1.88 1.88 0 0 0-1.94 1.904c0 1.371 1.011 1.99 1.972 1.99S95.5 8.231 95.5 7.113zM106.441 10.173V4.036h1.254v.382c.361-.346 1-.485 1.47-.485 1.452 0 2.477 1.082 2.457 2.448v3.792h-1.27V6.492c0-.408-.214-1.339-1.315-1.339-.969 0-1.342.756-1.342 1.339v3.681h-1.254zm-30.383-.021V1.824h1.084l4.215 5.777V1.824h1.32v8.328h-1.094l-4.207-5.796v5.796h-1.319zM5.24 10.149H4V2.377h1.014l2.664 3.597 2.654-3.592h1.03v7.766h-1.256V4.762L7.678 8.068 5.24 4.742v5.407z" transform="translate(735.078125, 394)" fill="#80808088" stroke="none"></path></svg>