<?xml version="1.0" encoding="utf-8" standalone="yes"?>
<!DOCTYPE svg PUBLIC "-//W3C//DTD SVG 1.1//EN" "http://www.w3.org/Graphics/SVG/1.1/DTD/svg11.dtd">
<svg style="fill:none;stroke:none;fill-rule:evenodd;clip-rule:evenodd;stroke-linecap:round;stroke-linejoin:round;stroke-miterlimit:1.5;" version="1.1" xmlns="http://www.w3.org/2000/svg" xmlns:xlink="http://www.w3.org/1999/xlink" width="886" height="456" viewBox="0 0 886 456"><style class="text-font-style fontImports" data-font-family="Roboto">@import url(https://fonts.googleapis.com/css2?family=Roboto:wght@400;700&amp;amp;display=block);</style><rect id="" x="0" y="0" width="885.891" height="456" style="fill: #ffffff;"></rect><g id="items" style="isolation: isolate"><g id="blend" style="mix-blend-mode: normal"><g id="g-root-cp_1-1_g-1-1_4o6dcshauost-fill" data-item-order="-375644" transform="translate(50.578125, 122)"><g id="cp_1-1_g-1-1_4o6dcshauost-fill-merged" stroke="none" fill="#edf4ff" fill-opacity="1"><g><path d="M10 23C10 29.075 14.925 34 21 34 H47.391C53.466 34 58.391 29.075 58.391 23 V21C58.391 14.925 53.466 10 47.391 10 H21C14.925 10 10 14.925 10 21 V23"></path></g></g></g><g id="g-root-cp_1-1_g-1-1_4o6dcshauost-stroke" data-item-order="-375644" transform="translate(50.578125, 122)"><g id="cp_1-1_g-1-1_4o6dcshauost-stroke" fill="none" stroke-linecap="round" stroke-linejoin="round" stroke-miterlimit="4" stroke="#484848" stroke-width="1" stroke-opacity="1"><g><path d="M 21 10C 14.9249 10 10 14.9249 10 21M 47.390636 10L 21 10M 58.39064 23C 58.39064 29.0751 53.46574 34 47.39064 34M 47.39064 10C 53.46574 10 58.39064 14.9249 58.39064 21M 10 23L 10 21M 58.39064 23L 58.39064 21M 21 34L 47.390636 34M 21 34C 14.9249 34 10 29.0751 10 23"></path></g></g></g><g id="g-root-cp_1-2_g-1-2_8cv8chaupl2-fill" data-item-order="-375608" transform="translate(14, 158)"><g id="cp_1-2_g-1-2_8cv8chaupl2-fill-merged" stroke="none" fill="#edf4ff" fill-opacity="1"><g><path d="M10 23C10 29.075 14.925 34 21 34 H83.969C90.044 34 94.969 29.075 94.969 23 V21C94.969 14.925 90.044 10 83.969 10 H21C14.925 10 10 14.925 10 21 V23"></path></g></g></g><g id="g-root-cp_1-2_g-1-2_8cv8chaupl2-stroke" data-item-order="-375608" transform="translate(14, 158)"><g id="cp_1-2_g-1-2_8cv8chaupl2-stroke" fill="none" stroke-linecap="round" stroke-linejoin="round" stroke-miterlimit="4" stroke="#484848" stroke-width="1" stroke-opacity="1"><g><path d="M 21 10C 14.9249 10 10 14.9249 10 21M 83.96875 10L 21 10M 94.96875 23C 94.96875 29.0751 90.04385 34 83.96875 34M 83.96875 10C 90.04385 10 94.96875 14.9249 94.96875 21M 10.000001 23L 10.000001 21M 94.96875 23L 94.96875 21M 21 34L 83.96875 34M 21 34C 14.9249 34 10 29.0751 10 23"></path></g></g></g><g id="g-root-cp_1_g-1_8cv8chaupl3-fill" data-item-order="-375570" transform="translate(134.96875, 135)"><g id="cp_1_g-1_8cv8chaupl3-fill-merged" stroke="none" fill="#edf4ff" fill-opacity="1"><g><path d="M10 29C10 37.284 16.716 44 25 44 H120.609C128.894 44 135.609 37.284 135.609 29 V25C135.609 16.716 128.894 10 120.609 10 H25C16.716 10 10 16.716 10 25 V29"></path></g></g></g><g id="g-root-cp_1_g-1_8cv8chaupl3-stroke" data-item-order="-375570" transform="translate(134.96875, 135)"><g id="cp_1_g-1_8cv8chaupl3-stroke" fill="none" stroke-linecap="round" stroke-linejoin="round" stroke-miterlimit="4" stroke="#484848" stroke-width="1" stroke-opacity="1"><g><path d="M 25 10C 16.7157 10 10 16.7157 10 25M 120.609375 10L 25 10M 135.609375 29C 135.609375 37.2843 128.893675 44 120.609375 44M 120.609375 10C 128.893675 10 135.609375 16.7157 135.609375 25M 10 29L 10 25M 135.609375 29L 135.609375 25M 25 44L 120.609375 44M 25 44C 16.7157 44 10 37.2843 10 29"></path></g></g></g><g id="g-root-cp_3-1_g-3-1_1utnf30hauq68-fill" data-item-order="-375524" transform="translate(61.609375, 230)"><g id="cp_3-1_g-3-1_1utnf30hauq68-fill-merged" stroke="none" fill="#edf4ff" fill-opacity="1"><g><path d="M10 23C10 29.075 14.925 34 21 34 H79.328C85.403 34 90.328 29.075 90.328 23 V21C90.328 14.925 85.403 10 79.328 10 H21C14.925 10 10 14.925 10 21 V23"></path></g></g></g><g id="g-root-cp_3-1_g-3-1_1utnf30hauq68-stroke" data-item-order="-375524" transform="translate(61.609375, 230)"><g id="cp_3-1_g-3-1_1utnf30hauq68-stroke" fill="none" stroke-linecap="round" stroke-linejoin="round" stroke-miterlimit="4" stroke="#484848" stroke-width="1" stroke-opacity="1"><g><path d="M 21 10C 14.9249 10 10 14.9249 10 21M 79.328133 10L 21 10M 90.328133 23C 90.328133 29.0751 85.403233 34 79.328133 34M 79.328133 10C 85.403233 10 90.328133 14.9249 90.328133 21M 10 23L 10 21M 90.328133 23L 90.328133 21M 21 34L 79.328133 34M 21 34C 14.9249 34 10 29.0751 10 23"></path></g></g></g><g id="g-root-cp_3-2_g-3-2_1utnf30hauq69-fill" data-item-order="-375488" transform="translate(49.609375, 266)"><g id="cp_3-2_g-3-2_1utnf30hauq69-fill-merged" stroke="none" fill="#edf4ff" fill-opacity="1"><g><path d="M10 23C10 29.075 14.925 34 21 34 H91.328C97.403 34 102.328 29.075 102.328 23 V21C102.328 14.925 97.403 10 91.328 10 H21C14.925 10 10 14.925 10 21 V23"></path></g></g></g><g id="g-root-cp_3-2_g-3-2_1utnf30hauq69-stroke" data-item-order="-375488" transform="translate(49.609375, 266)"><g id="cp_3-2_g-3-2_1utnf30hauq69-stroke" fill="none" stroke-linecap="round" stroke-linejoin="round" stroke-miterlimit="4" stroke="#484848" stroke-width="1" stroke-opacity="1"><g><path d="M 21 10C 14.9249 10 10 14.9249 10 21M 91.328117 10L 21 10M 102.328117 23C 102.328117 29.0751 97.403217 34 91.328117 34M 91.328117 10C 97.403217 10 102.328117 14.9249 102.328117 21M 10 23L 10 21M 102.328117 23L 102.328117 21M 21 34L 91.328117 34M 21 34C 14.9249 34 10 29.0751 10 23"></path></g></g></g><g id="g-root-cp_3_g-3_1lymvx8haunt6-fill" data-item-order="-375450" transform="translate(177.9375, 243)"><g id="cp_3_g-3_1lymvx8haunt6-fill-merged" stroke="none" fill="#edf4ff" fill-opacity="1"><g><path d="M10 29C10 37.284 16.716 44 25 44 H77.641C85.925 44 92.641 37.284 92.641 29 V25C92.641 16.716 85.925 10 77.641 10 H25C16.716 10 10 16.716 10 25 V29"></path></g></g></g><g id="g-root-cp_3_g-3_1lymvx8haunt6-stroke" data-item-order="-375450" transform="translate(177.9375, 243)"><g id="cp_3_g-3_1lymvx8haunt6-stroke" fill="none" stroke-linecap="round" stroke-linejoin="round" stroke-miterlimit="4" stroke="#484848" stroke-width="1" stroke-opacity="1"><g><path d="M 25 10C 16.7157 10 10 16.7157 10 25M 77.640625 10L 25 10M 92.640625 29C 92.640625 37.2843 85.924925 44 77.640625 44M 77.640625 10C 85.924925 10 92.640625 16.7157 92.640625 25M 10 29L 10 25M 92.640625 29L 92.640625 25M 25 44L 77.640625 44M 25 44C 16.7157 44 10 37.2843 10 29"></path></g></g></g><g id="g-root-cp_5-1_g-5-1_1hitdsshauolf-fill" data-item-order="-375404" transform="translate(49.25, 338)"><g id="cp_5-1_g-5-1_1hitdsshauolf-fill-merged" stroke="none" fill="#edf4ff" fill-opacity="1"><g><path d="M10 23C10 29.075 14.925 34 21 34 H53.781C59.856 34 64.781 29.075 64.781 23 V21C64.781 14.925 59.856 10 53.781 10 H21C14.925 10 10 14.925 10 21 V23"></path></g></g></g><g id="g-root-cp_5-1_g-5-1_1hitdsshauolf-stroke" data-item-order="-375404" transform="translate(49.25, 338)"><g id="cp_5-1_g-5-1_1hitdsshauolf-stroke" fill="none" stroke-linecap="round" stroke-linejoin="round" stroke-miterlimit="4" stroke="#484848" stroke-width="1" stroke-opacity="1"><g><path d="M 21 10C 14.9249 10 10 14.9249 10 21M 53.78125 10L 21 10M 64.78125 23C 64.78125 29.0751 59.85635 34 53.78125 34M 53.78125 10C 59.85635 10 64.78125 14.9249 64.78125 21M 10 23L 10 21M 64.78125 23L 64.78125 21M 21 34L 53.78125 34M 21 34C 14.9249 34 10 29.0751 10 23"></path></g></g></g><g id="g-root-cp_5-2_g-5-2_1hitdsshauolg-fill" data-item-order="-375368" transform="translate(43.3125, 374)"><g id="cp_5-2_g-5-2_1hitdsshauolg-fill-merged" stroke="none" fill="#edf4ff" fill-opacity="1"><g><path d="M10 23C10 29.075 14.925 34 21 34 H59.719C65.794 34 70.719 29.075 70.719 23 V21C70.719 14.925 65.794 10 59.719 10 H21C14.925 10 10 14.925 10 21 V23"></path></g></g></g><g id="g-root-cp_5-2_g-5-2_1hitdsshauolg-stroke" data-item-order="-375368" transform="translate(43.3125, 374)"><g id="cp_5-2_g-5-2_1hitdsshauolg-stroke" fill="none" stroke-linecap="round" stroke-linejoin="round" stroke-miterlimit="4" stroke="#484848" stroke-width="1" stroke-opacity="1"><g><path d="M 21 10C 14.9249 10 10 14.9249 10 21M 59.71875 10L 21 10M 70.71875 23C 70.71875 29.0751 65.79385 34 59.71875 34M 59.71875 10C 65.79385 10 70.71875 14.9249 70.71875 21M 10 23L 10 21M 70.71875 23L 70.71875 21M 21 34L 59.71875 34M 21 34C 14.9249 34 10 29.0751 10 23"></path></g></g></g><g id="g-root-cp_5_g-5_18n6djwhaupe5-fill" data-item-order="-375330" transform="translate(140.03125, 351)"><g id="cp_5_g-5_18n6djwhaupe5-fill-merged" stroke="none" fill="#edf4ff" fill-opacity="1"><g><path d="M10 29C10 37.284 16.716 44 25 44 H115.547C123.831 44 130.547 37.284 130.547 29 V25C130.547 16.716 123.831 10 115.547 10 H25C16.716 10 10 16.716 10 25 V29"></path></g></g></g><g id="g-root-cp_5_g-5_18n6djwhaupe5-stroke" data-item-order="-375330" transform="translate(140.03125, 351)"><g id="cp_5_g-5_18n6djwhaupe5-stroke" fill="none" stroke-linecap="round" stroke-linejoin="round" stroke-miterlimit="4" stroke="#484848" stroke-width="1" stroke-opacity="1"><g><path d="M 25 10C 16.7157 10 10 16.7157 10 25M 115.546867 10L 25 10M 130.546867 29C 130.546867 37.2843 123.831167 44 115.546867 44M 115.546867 10C 123.831167 10 130.546867 16.7157 130.546867 25M 10 29L 10 25M 130.546867 29L 130.546867 25M 25 44L 115.546867 44M 25 44C 16.7157 44 10 37.2843 10 29"></path></g></g></g><g id="g-root-cp_start_g-start_18n6djwhaupe6-fill" data-item-order="-375288" transform="translate(356.578125, 234)"><g id="cp_start_g-start_18n6djwhaupe6-fill-merged" stroke="none" fill="#edf4ff" fill-opacity="1"><g><path d="M10 45C10 54.389 17.611 62 27 62 H117.594C126.983 62 134.594 54.389 134.594 45 V27C134.594 17.611 126.983 10 117.594 10 H27C17.611 10 10 17.611 10 27 V45"></path></g></g></g><g id="g-root-cp_start_g-start_18n6djwhaupe6-stroke" data-item-order="-375288" transform="translate(356.578125, 234)"><g id="cp_start_g-start_18n6djwhaupe6-stroke" fill="none" stroke-linecap="round" stroke-linejoin="round" stroke-miterlimit="4" stroke="#484848" stroke-width="1" stroke-opacity="1"><g><path d="M 27 10C 17.6112 10 10 17.6112 10 27M 117.59375 10L 27 10M 134.59375 45C 134.59375 54.3888 126.98255 62 117.59375 62M 117.59375 10C 126.98255 10 134.59375 17.6112 134.59375 27M 10 45L 10 27M 134.59375 45L 134.59375 27M 27 62L 117.59375 62M 27 62C 17.6112 62 10 54.3888 10 45"></path></g></g></g><g id="g-root-cp_2_g-2_147cvfghauq6f-fill" data-item-order="-375242" transform="translate(577.171875, 189)"><g id="cp_2_g-2_147cvfghauq6f-fill-merged" stroke="none" fill="#edf4ff" fill-opacity="1"><g><path d="M10 29C10 37.284 16.716 44 25 44 H58.578C66.862 44 73.578 37.284 73.578 29 V25C73.578 16.716 66.862 10 58.578 10 H25C16.716 10 10 16.716 10 25 V29"></path></g></g></g><g id="g-root-cp_2_g-2_147cvfghauq6f-stroke" data-item-order="-375242" transform="translate(577.171875, 189)"><g id="cp_2_g-2_147cvfghauq6f-stroke" fill="none" stroke-linecap="round" stroke-linejoin="round" stroke-miterlimit="4" stroke="#484848" stroke-width="1" stroke-opacity="1"><g><path d="M 25 10C 16.7157 10 10 16.7157 10 25M 58.578125 10L 25 10M 73.578125 29C 73.578125 37.2843 66.862425 44 58.578125 44M 58.578125 10C 66.862425 10 73.578125 16.7157 73.578125 25M 10 29L 10 25M 73.578125 29L 73.578125 25M 25 44L 58.578125 44M 25 44C 16.7157 44 10 37.2843 10 29"></path></g></g></g><g id="g-root-cp_2-1_g-2-1_zs5ue4haunsw-fill" data-item-order="-375200" transform="translate(676.75, 194)"><g id="cp_2-1_g-2-1_zs5ue4haunsw-fill-merged" stroke="none" fill="#edf4ff" fill-opacity="1"><g><path d="M10 23C10 29.075 14.925 34 21 34 H92.016C98.091 34 103.016 29.075 103.016 23 V21C103.016 14.925 98.091 10 92.016 10 H21C14.925 10 10 14.925 10 21 V23"></path></g></g></g><g id="g-root-cp_2-1_g-2-1_zs5ue4haunsw-stroke" data-item-order="-375200" transform="translate(676.75, 194)"><g id="cp_2-1_g-2-1_zs5ue4haunsw-stroke" fill="none" stroke-linecap="round" stroke-linejoin="round" stroke-miterlimit="4" stroke="#484848" stroke-width="1" stroke-opacity="1"><g><path d="M 20.999939 10C 14.924839 10 9.999939 14.9249 9.999939 21M 92.015625 10L 21 10M 103.015625 23C 103.015625 29.0751 98.090725 34 92.015625 34M 92.015625 10C 98.090725 10 103.015625 14.9249 103.015625 21M 10 23L 10 21M 103.015625 23L 103.015625 21M 21 34L 92.015625 34M 20.999939 34C 14.924839 34 9.999939 29.0751 9.999939 23"></path></g></g></g><g id="g-root-cp_4_g-4_zs5ue4haunsx-fill" data-item-order="-375158" transform="translate(577.171875, 279)"><g id="cp_4_g-4_zs5ue4haunsx-fill-merged" stroke="none" fill="#edf4ff" fill-opacity="1"><g><path d="M10 29C10 37.284 16.716 44 25 44 H117.438C125.722 44 132.438 37.284 132.438 29 V25C132.438 16.716 125.722 10 117.438 10 H25C16.716 10 10 16.716 10 25 V29"></path></g></g></g><g id="g-root-cp_4_g-4_zs5ue4haunsx-stroke" data-item-order="-375158" transform="translate(577.171875, 279)"><g id="cp_4_g-4_zs5ue4haunsx-stroke" fill="none" stroke-linecap="round" stroke-linejoin="round" stroke-miterlimit="4" stroke="#484848" stroke-width="1" stroke-opacity="1"><g><path d="M 25 10C 16.7157 10 10 16.7157 10 25M 117.4375 10L 25 10M 132.4375 29C 132.4375 37.2843 125.7218 44 117.4375 44M 117.4375 10C 125.7218 10 132.4375 16.7157 132.4375 25M 10 29L 10 25M 132.4375 29L 132.4375 25M 25 44L 117.4375 44M 25 44C 16.7157 44 10 37.2843 10 29"></path></g></g></g><g id="g-root-cp_4-1_g-4-1_qwiu58hauolm-fill" data-item-order="-375116" transform="translate(735.609375, 266)"><g id="cp_4-1_g-4-1_qwiu58hauolm-fill-merged" stroke="none" fill="#edf4ff" fill-opacity="1"><g><path d="M10 23C10 29.075 14.925 34 21 34 H105.344C111.419 34 116.344 29.075 116.344 23 V21C116.344 14.925 111.419 10 105.344 10 H21C14.925 10 10 14.925 10 21 V23"></path></g></g></g><g id="g-root-cp_4-1_g-4-1_qwiu58hauolm-stroke" data-item-order="-375116" transform="translate(735.609375, 266)"><g id="cp_4-1_g-4-1_qwiu58hauolm-stroke" fill="none" stroke-linecap="round" stroke-linejoin="round" stroke-miterlimit="4" stroke="#484848" stroke-width="1" stroke-opacity="1"><g><path d="M 21 10C 14.9249 10 10 14.9249 10 21M 105.343742 10L 21 10M 116.343742 23C 116.343742 29.0751 111.418842 34 105.343742 34M 105.343742 10C 111.418842 10 116.343742 14.9249 116.343742 21M 10 23L 10 21M 116.343742 23L 116.343742 21M 21 34L 105.343742 34M 21 34C 14.9249 34 10 29.0751 10 23"></path></g></g></g><g id="g-root-cp_4-2_g-4-2_qwiu58hauoln-fill" data-item-order="-375080" transform="translate(735.609375, 302)"><g id="cp_4-2_g-4-2_qwiu58hauoln-fill-merged" stroke="none" fill="#edf4ff" fill-opacity="1"><g><path d="M10 23C10 29.075 14.925 34 21 34 H115.281C121.356 34 126.281 29.075 126.281 23 V21C126.281 14.925 121.356 10 115.281 10 H21C14.925 10 10 14.925 10 21 V23"></path></g></g></g><g id="g-root-cp_4-2_g-4-2_qwiu58hauoln-stroke" data-item-order="-375080" transform="translate(735.609375, 302)"><g id="cp_4-2_g-4-2_qwiu58hauoln-stroke" fill="none" stroke-linecap="round" stroke-linejoin="round" stroke-miterlimit="4" stroke="#484848" stroke-width="1" stroke-opacity="1"><g><path d="M 21 10C 14.9249 10 10 14.9249 10 21M 115.28125 10L 21 10M 126.28125 23C 126.28125 29.0751 121.35635 34 115.28125 34M 115.28125 10C 121.35635 10 126.28125 14.9249 126.28125 21M 10 23L 10 21M 126.28125 23L 126.28125 21M 21 34L 115.28125 34M 21 34C 14.9249 34 10 29.0751 10 23"></path></g></g></g><g id="g-root-he_mgpc0shaupdx-fill" data-item-order="-375039" transform="translate(260.578125, 152)"></g><g id="g-root-he_mgpc0shaupdx-stroke" data-item-order="-375039" transform="translate(260.578125, 152)"><g id="he_mgpc0shaupdx-stroke" fill="none" stroke-linecap="round" stroke-linejoin="round" stroke-miterlimit="4" stroke="#484848" stroke-width="1" stroke-opacity="1"><g><path d="M 100 111.25L 16 16.75M 100 118L 16 118M 100 124.75L 16 219.25"></path></g></g></g><g id="g-root-he_mgpc0shaupdz-fill" data-item-order="-375037" transform="translate(481.171875, 206)"></g><g id="g-root-he_mgpc0shaupdz-stroke" data-item-order="-375037" transform="translate(481.171875, 206)"><g id="he_mgpc0shaupdz-stroke" fill="none" stroke-linecap="round" stroke-linejoin="round" stroke-miterlimit="4" stroke="#484848" stroke-width="1" stroke-opacity="1"><g><path d="M 16 60.625L 100 13.375M 16 66.25L 100 97.75"></path></g></g></g><g id="g-root-he_mgpc0shaupe1-fill" data-item-order="-375035" transform="translate(98.96875, 134)"></g><g id="g-root-he_mgpc0shaupe1-stroke" data-item-order="-375035" transform="translate(98.96875, 134)"><g id="he_mgpc0shaupe1-stroke" fill="none" stroke-linecap="round" stroke-linejoin="round" stroke-miterlimit="4" stroke="#484848" stroke-width="1" stroke-opacity="1"><g><path d="M 40 25L 16 13M 40 31L 16 43"></path></g></g></g><g id="g-root-he_mgpc0shaupe3-fill" data-item-order="-375033" transform="translate(640.75, 206)"></g><g id="g-root-he_mgpc0shaupe3-stroke" data-item-order="-375033" transform="translate(640.75, 206)"><g id="he_mgpc0shaupe3-stroke" fill="none" stroke-linecap="round" stroke-linejoin="round" stroke-miterlimit="4" stroke="#484848" stroke-width="1" stroke-opacity="1"><g><path d="M 16 10L 40 10"></path></g></g></g><g id="g-root-he_mgpc0shaupe5-fill" data-item-order="-375031" transform="translate(141.9375, 242)"></g><g id="g-root-he_mgpc0shaupe5-stroke" data-item-order="-375031" transform="translate(141.9375, 242)"><g id="he_mgpc0shaupe5-stroke" fill="none" stroke-linecap="round" stroke-linejoin="round" stroke-miterlimit="4" stroke="#484848" stroke-width="1" stroke-opacity="1"><g><path d="M 40 25L 16 13M 40 31L 16 43"></path></g></g></g><g id="g-root-he_mgpc0shaupe7-fill" data-item-order="-375029" transform="translate(699.609375, 278)"></g><g id="g-root-he_mgpc0shaupe7-stroke" data-item-order="-375029" transform="translate(699.609375, 278)"><g id="he_mgpc0shaupe7-stroke" fill="none" stroke-linecap="round" stroke-linejoin="round" stroke-miterlimit="4" stroke="#484848" stroke-width="1" stroke-opacity="1"><g><path d="M 16 25L 40 13M 16 31L 40 43"></path></g></g></g><g id="g-root-he_i0vtwchauq6h-fill" data-item-order="-375027" transform="translate(104.03125, 350)"></g><g id="g-root-he_i0vtwchauq6h-stroke" data-item-order="-375027" transform="translate(104.03125, 350)"><g id="he_i0vtwchauq6h-stroke" fill="none" stroke-linecap="round" stroke-linejoin="round" stroke-miterlimit="4" stroke="#484848" stroke-width="1" stroke-opacity="1"><g><path d="M 40 25L 16 13M 40 31L 16 43"></path></g></g></g><g id="g-root-tx_telemetr_1hf2mfwhaf7kc-fill" data-item-order="0" transform="translate(368.578125, 246)"><g id="tx_telemetr_1hf2mfwhaf7kc-fill-merged" stroke="none" fill="#484848" fill-opacity="1"><g><text style="font: bold 12px Roboto, sans-serif; white-space: pre;" transform="translate(60.296875, 24)" font-weight="bold" font-size="12px" font-family="Roboto, sans-serif"><tspan x="-38.72" y="0" dominant-baseline="ideographic">Telemetry and </tspan><tspan x="-48.3" y="14" dominant-baseline="ideographic">Analytics Pipeline</tspan></text></g></g></g><g id="g-root-tx_telemetr_1hf2mfwhaf7kc-stroke" data-item-order="0" transform="translate(368.578125, 246)"></g><g id="g-root-tx_datastru_1cz915ohayxvu-fill" data-item-order="0" transform="translate(55.609375, 272)"><g id="tx_datastru_1cz915ohayxvu-fill-merged" stroke="none" fill="#484848" fill-opacity="1"><g><text style="font: bold 10.5px Roboto, sans-serif; white-space: pre;" transform="translate(90.328125, 16)" font-weight="bold" font-size="10.5px" font-family="Roboto, sans-serif"><tspan x="-78.33" y="6" dominant-baseline="ideographic">Data structuring</tspan></text></g></g></g><g id="g-root-tx_datastru_1cz915ohayxvu-stroke" data-item-order="0" transform="translate(55.609375, 272)"></g><g id="g-root-tx_logparse_4pfbj0hayxhq-fill" data-item-order="0" transform="translate(187.9375, 253)"><g id="tx_logparse_4pfbj0hayxhq-fill-merged" stroke="none" fill="#484848" fill-opacity="1"><g><text style="font: bold 12px Roboto, sans-serif; white-space: pre;" transform="translate(72.640625, 17)" font-weight="bold" font-size="12px" font-family="Roboto, sans-serif"><tspan x="-60.64" y="7" dominant-baseline="ideographic">Log Parser</tspan></text></g></g></g><g id="g-root-tx_logparse_4pfbj0hayxhq-stroke" data-item-order="0" transform="translate(187.9375, 253)"></g><g id="g-root-tx_dataclea_18gb5lohayxhr-fill" data-item-order="0" transform="translate(67.609375, 236)"><g id="tx_dataclea_18gb5lohayxhr-fill-merged" stroke="none" fill="#484848" fill-opacity="1"><g><text style="font: bold 10.5px Roboto, sans-serif; white-space: pre;" transform="translate(78.328125, 16)" font-weight="bold" font-size="10.5px" font-family="Roboto, sans-serif"><tspan x="-66.33" y="6" dominant-baseline="ideographic">Data cleaning</tspan></text></g></g></g><g id="g-root-tx_dataclea_18gb5lohayxhr-stroke" data-item-order="0" transform="translate(67.609375, 236)"></g><g id="g-root-tx_logaggre_v9uj30hagn4d-fill" data-item-order="0" transform="translate(682.75, 200)"><g id="tx_logaggre_v9uj30hagn4d-fill-merged" stroke="none" fill="#484848" fill-opacity="1"><g><text style="font: bold 10.5px Roboto, sans-serif; white-space: pre;" transform="translate(10, 16)" font-weight="bold" font-size="10.5px" font-family="Roboto, sans-serif"><tspan x="2" y="6" dominant-baseline="ideographic">Log aggregation</tspan></text></g></g></g><g id="g-root-tx_logaggre_v9uj30hagn4d-stroke" data-item-order="0" transform="translate(682.75, 200)"></g><g id="g-root-tx_numerica_1hbbrx8hai1vt-fill" data-item-order="0" transform="translate(741.609375, 272)"><g id="tx_numerica_1hbbrx8hai1vt-fill-merged" stroke="none" fill="#484848" fill-opacity="1"><g><text style="font: bold 10.5px Roboto, sans-serif; white-space: pre;" transform="translate(10, 16)" font-weight="bold" font-size="10.5px" font-family="Roboto, sans-serif"><tspan x="2" y="6" dominant-baseline="ideographic">Numerical features</tspan></text></g></g></g><g id="g-root-tx_numerica_1hbbrx8hai1vt-stroke" data-item-order="0" transform="translate(741.609375, 272)"></g><g id="g-root-tx_featuree_94mfq4hagoi7-fill" data-item-order="0" transform="translate(587.171875, 289)"><g id="tx_featuree_94mfq4hagoi7-fill-merged" stroke="none" fill="#484848" fill-opacity="1"><g><text style="font: bold 12px Roboto, sans-serif; white-space: pre;" transform="translate(10, 17)" font-weight="bold" font-size="12px" font-family="Roboto, sans-serif"><tspan x="2" y="7" dominant-baseline="ideographic">Feature Extraction</tspan></text></g></g></g><g id="g-root-tx_featuree_94mfq4hagoi7-stroke" data-item-order="0" transform="translate(587.171875, 289)"></g><g id="g-root-tx_inferenc_metwrghb0aa5-fill" data-item-order="0" transform="translate(49.3125, 380)"><g id="tx_inferenc_metwrghb0aa5-fill-merged" stroke="none" fill="#484848" fill-opacity="1"><g><text style="font: bold 10.5px Roboto, sans-serif; white-space: pre;" transform="translate(58.71875, 16)" font-weight="bold" font-size="10.5px" font-family="Roboto, sans-serif"><tspan x="-46.72" y="6" dominant-baseline="ideographic">Inference</tspan></text></g></g></g><g id="g-root-tx_inferenc_metwrghb0aa5-stroke" data-item-order="0" transform="translate(49.3125, 380)"></g><g id="g-root-tx_categori_v63okchai39n-fill" data-item-order="0" transform="translate(741.609375, 308)"><g id="tx_categori_v63okchai39n-fill-merged" stroke="none" fill="#484848" fill-opacity="1"><g><text style="font: bold 10.5px Roboto, sans-serif; white-space: pre;" transform="translate(10, 16)" font-weight="bold" font-size="10.5px" font-family="Roboto, sans-serif"><tspan x="2" y="6" dominant-baseline="ideographic">Categorical encoding</tspan></text></g></g></g><g id="g-root-tx_categori_v63okchai39n-stroke" data-item-order="0" transform="translate(741.609375, 308)"></g><g id="g-root-tx_suricata_90vi1ohaxgqw-fill" data-item-order="0" transform="translate(20, 164)"><g id="tx_suricata_90vi1ohaxgqw-fill-merged" stroke="none" fill="#484848" fill-opacity="1"><g><text style="font: bold 10.5px Roboto, sans-serif; white-space: pre;" transform="translate(82.96875, 16)" font-weight="bold" font-size="10.5px" font-family="Roboto, sans-serif"><tspan x="-70.97" y="6" dominant-baseline="ideographic">Suricata alerts</tspan></text></g></g></g><g id="g-root-tx_suricata_90vi1ohaxgqw-stroke" data-item-order="0" transform="translate(20, 164)"></g><g id="g-root-tx_training_4j6knwhb0a2p-fill" data-item-order="0" transform="translate(55.25, 344)"><g id="tx_training_4j6knwhb0a2p-fill-merged" stroke="none" fill="#484848" fill-opacity="1"><g><text style="font: bold 10.5px Roboto, sans-serif; white-space: pre;" transform="translate(52.78125, 16)" font-weight="bold" font-size="10.5px" font-family="Roboto, sans-serif"><tspan x="-40.78" y="6" dominant-baseline="ideographic">Training</tspan></text></g></g></g><g id="g-root-tx_training_4j6knwhb0a2p-stroke" data-item-order="0" transform="translate(55.25, 344)"></g><g id="g-root-tx_opnsense_djtdlohaxh4z-fill" data-item-order="0" transform="translate(144.96875, 145)"><g id="tx_opnsense_djtdlohaxh4z-fill-merged" stroke="none" fill="#484848" fill-opacity="1"><g><text style="font: bold 12px Roboto, sans-serif; white-space: pre;" transform="translate(115.609375, 17)" font-weight="bold" font-size="12px" font-family="Roboto, sans-serif"><tspan x="-103.61" y="7" dominant-baseline="ideographic">OPNsense Firewall</tspan></text></g></g></g><g id="g-root-tx_opnsense_djtdlohaxh4z-stroke" data-item-order="0" transform="translate(144.96875, 145)"></g><g id="g-root-tx_pflogs_18f27fghaxhxo-fill" data-item-order="0" transform="translate(56.578125, 128)"><g id="tx_pflogs_18f27fghaxhxo-fill-merged" stroke="none" fill="#484848" fill-opacity="1"><g><text style="font: bold 10.5px Roboto, sans-serif; white-space: pre;" transform="translate(46.390625, 16)" font-weight="bold" font-size="10.5px" font-family="Roboto, sans-serif"><tspan x="-34.39" y="6" dominant-baseline="ideographic">pf logs</tspan></text></g></g></g><g id="g-root-tx_pflogs_18f27fghaxhxo-stroke" data-item-order="0" transform="translate(56.578125, 128)"></g><g id="g-root-tx_telemetr_1d1qxi4haw26h-fill" data-item-order="0" transform="translate(267.8046875, 38)"><g id="tx_telemetr_1d1qxi4haw26h-fill-merged" stroke="none" fill="#484848" fill-opacity="1"><g><text style="font: bold 20px Roboto, sans-serif; white-space: pre;" transform="translate(159.484375, 22)" font-weight="bold" font-size="20px" font-family="Roboto, sans-serif"><tspan x="-147.48" y="12" dominant-baseline="ideographic">Telemetry and Analytics Pipeline</tspan></text></g></g></g><g id="g-root-tx_telemetr_1d1qxi4haw26h-stroke" data-item-order="0" transform="translate(267.8046875, 38)"></g><g id="g-root-tx_machinel_qnsa3ghaf85k-fill" data-item-order="0" transform="translate(150.03125, 361)"><g id="tx_machinel_qnsa3ghaf85k-fill-merged" stroke="none" fill="#484848" fill-opacity="1"><g><text style="font: bold 12px Roboto, sans-serif; white-space: pre;" transform="translate(110.546875, 17)" font-weight="bold" font-size="12px" font-family="Roboto, sans-serif"><tspan x="-98.55" y="7" dominant-baseline="ideographic">Machine Learning</tspan></text></g></g></g><g id="g-root-tx_machinel_qnsa3ghaf85k-stroke" data-item-order="0" transform="translate(150.03125, 361)"></g><g id="g-root-tx_rsyslog_1qa35lohago3n-fill" data-item-order="0" transform="translate(587.171875, 199)"><g id="tx_rsyslog_1qa35lohago3n-fill-merged" stroke="none" fill="#484848" fill-opacity="1"><g><text style="font: bold 12px Roboto, sans-serif; white-space: pre;" transform="translate(10, 17)" font-weight="bold" font-size="12px" font-family="Roboto, sans-serif"><tspan x="2" y="7" dominant-baseline="ideographic">rsyslog</tspan></text></g></g></g><g id="g-root-tx_rsyslog_1qa35lohago3n-stroke" data-item-order="0" transform="translate(587.171875, 199)"></g></g></g><path id="wdj760ceiko3z" d="M65.283 12.757a.35.35 0 0 0 .584.157l5.203-5.141-6.183 3.523.396 1.461zm-2.216-11.7a.35.35 0 0 0-.522.305v3.111l3.276-1.868-2.754-1.548zm3.728 2.105l-4.25 2.421v2.445l6.391-3.644-2.141-1.222zm4.708 3.303a.35.35 0 0 0 0-.609l-1.592-.9-7.365 4.199v1.782a.35.35 0 0 0 .523.305l8.435-4.777z M44.542 2.513c0-.433.355-.783.792-.783s.792.35.792.783-.355.783-.792.783-.792-.35-.792-.783zm59.171 0c0-.433.355-.783.792-.783s.792.35.792.783-.355.783-.792.783-.792-.35-.792-.783zm-85.951 7.636h-1.27v-.487c-.276.201-.864.609-1.881.609-1.202 0-2.274-.794-2.137-2.078.118-1.106 1.153-1.584 1.848-1.727l2.17-.345c0-.539-.29-.956-1.064-1.006s-1.21.305-1.571 1.017l-1.124-.605c1.218-2.631 5.029-1.764 5.029.414v4.207zm-1.27-2.86c.006.396-.062 1.112-.819 1.59-.587.37-1.841.299-1.903-.395-.049-.555.461-.791.906-.898l1.816-.297zm72.662 2.86h-1.27v-.487c-.276.201-.864.609-1.881.609-1.202 0-2.274-.794-2.137-2.078.118-1.106 1.153-1.584 1.848-1.727l2.17-.345c0-.539-.29-.956-1.064-1.006s-1.21.305-1.571 1.017l-1.124-.605c1.218-2.631 5.029-1.764 5.029.414v4.207zm-1.27-2.86c.006.396-.062 1.112-.82 1.59-.587.37-1.841.299-1.903-.395-.049-.555.461-.791.906-.898l1.816-.297zM99.096 10.149H97.85v-8.45h1.246v4.895l2.68-2.559h1.738l-2.633 2.535 2.715 3.578h-1.556l-2.077-2.707-.867.844v1.863zm6.053-6.114h-1.255v6.113h1.255V4.035zm-59.2 0h-1.255v6.113h1.255V4.035zm5.584 6.113V1.697h1.255v2.695c.361-.346 1-.485 1.47-.485 1.452 0 2.477 1.082 2.457 2.448v3.792h-1.27v-3.68c0-.408-.214-1.339-1.315-1.339-.968 0-1.342.756-1.342 1.339v3.681h-1.255zm-4.76-4.894V4.039h.621a.45.45 0 0 0 .45-.45v-.855h1.251v1.305h1.309v1.215h-1.309v3.109c0 .293.105.664.648.664.365 0 .531-.035.736-.07v1.137s-.361.113-.857.113c-1.398 0-1.777-1.051-1.777-1.788V5.254h-1.071zM36.528 4.039h-1.394l2.191 6.106h1.125l1.234-3.918 1.238 3.918h1.129l2.188-6.106h-1.383l-1.359 3.93-1.256-3.93h-1.124l-1.242 3.957-1.348-3.957zM26.212 7.141c-.02 1.566 1.187 3.129 3.223 3.129 1.566 0 2.383-.918 2.734-1.719L31.172 8c-.315.399-.801 1.094-1.738 1.094-1.145 0-1.825-.781-1.891-1.52h4.625c.074-.284.148-.995-.03-1.559-.336-1.064-1.221-2.102-2.839-2.102s-3.088 1.152-3.088 3.227zm1.363-.75h3.348c-.055-.43-.566-1.301-1.623-1.301a1.79 1.79 0 0 0-1.725 1.301zm-8.758.75c.038 1.758 1.277 3.133 3.145 3.133 1.074 0 1.723-.477 1.961-.672v.547h1.242V1.703h-1.258v2.888c-.414-.36-1.062-.68-1.93-.68-1.91 0-3.198 1.473-3.16 3.23zm1.309-.08c0 1.119.723 1.978 1.836 1.978a1.88 1.88 0 0 0 1.94-1.904c0-1.371-1.011-1.99-1.972-1.99s-1.805.798-1.805 1.916zm76.683-.028C96.771 5.275 95.532 3.9 93.664 3.9c-1.074 0-1.723.477-1.961.672v-.547h-1.242v8.22h1.258V9.583c.414.36 1.063.68 1.93.68 1.91 0 3.198-1.473 3.16-3.23zm-1.309.08c0-1.119-.723-1.978-1.836-1.978a1.88 1.88 0 0 0-1.94 1.904c0 1.371 1.011 1.99 1.972 1.99S95.5 8.231 95.5 7.113zM106.441 10.173V4.036h1.254v.382c.361-.346 1-.485 1.47-.485 1.452 0 2.477 1.082 2.457 2.448v3.792h-1.27V6.492c0-.408-.214-1.339-1.315-1.339-.969 0-1.342.756-1.342 1.339v3.681h-1.254zm-30.383-.021V1.824h1.084l4.215 5.777V1.824h1.32v8.328h-1.094l-4.207-5.796v5.796h-1.319zM5.24 10.149H4V2.377h1.014l2.664 3.597 2.654-3.592h1.03v7.766h-1.256V4.762L7.678 8.068 5.24 4.742v5.407z" transform="translate(749.890625, 422)" fill="#80808088" stroke="none"></path></svg>